<svg width="28" height="24" viewBox="0 0 28 24" fill="none" xmlns="http://www.w3.org/2000/svg">
<path fill-rule="evenodd" clip-rule="evenodd" d="M21.5083 1.78633e-06C21.3477 2.43351e-05 21.1908 0.0461339 21.0575 0.132451C20.9243 0.218767 20.8207 0.341381 20.76 0.484666C20.6993 0.627951 20.6842 0.785417 20.7167 0.936989C20.7492 1.08856 20.8277 1.22738 20.9424 1.33574L22.3167 2.66057H13.2577C13.0433 2.66057 12.8377 2.74268 12.6861 2.88883C12.5345 3.03498 12.4493 3.2332 12.4493 3.43988C12.4493 3.64657 12.5345 3.84479 12.6861 3.99094C12.8377 4.13709 13.0433 4.21919 13.2577 4.21919H22.3167L20.9424 5.54402C20.7908 5.69036 20.7057 5.88875 20.7059 6.09555C20.706 6.30235 20.7914 6.50062 20.9432 6.64675C21.095 6.79287 21.3008 6.87489 21.5153 6.87474C21.7298 6.87459 21.9355 6.7923 22.0871 6.64597L24.771 4.05866C24.8699 3.98526 24.9498 3.89078 25.0045 3.78262C25.0592 3.67446 25.0872 3.55555 25.0863 3.43522C25.0853 3.31489 25.0555 3.19641 24.9991 3.08905C24.9427 2.98169 24.8613 2.88838 24.7613 2.81643L22.0871 0.233795C22.0116 0.159598 21.9216 0.100694 21.8222 0.0605436C21.7228 0.0203936 21.616 -0.00019099 21.5083 1.78633e-06ZM0.792399 2.58128V2.5844C0.686232 2.58642 0.581519 2.60859 0.484242 2.64964C0.386965 2.69069 0.29903 2.74981 0.22546 2.82363C0.15189 2.89744 0.0941267 2.98451 0.05547 3.07985C0.0168132 3.17519 -0.00197968 3.27694 0.000164892 3.37929C0.203882 14.5733 9.34853 23.618 20.7244 23.9484H20.7276C20.8463 23.9923 20.9741 24.0085 21.1006 23.9958C21.2271 23.9831 21.3486 23.9418 21.4554 23.8753C21.5622 23.8088 21.6512 23.7189 21.7152 23.613C21.7793 23.5071 21.8164 23.3881 21.8238 23.2658L21.827 23.2393C21.8271 23.233 21.8271 23.2268 21.827 23.2206C21.8279 23.2003 21.8279 23.18 21.827 23.1598V16.1491C21.827 15.9424 21.7419 15.7442 21.5903 15.598C21.4387 15.4519 21.233 15.3698 21.0186 15.3698H21.0025C20.989 15.3695 20.9755 15.3695 20.962 15.3698C19.3948 15.4422 17.8464 15.015 16.5562 14.1541C16.5405 14.1436 16.5243 14.1338 16.5077 14.1244L16.4172 14.073C16.322 14.0189 16.2163 13.9842 16.1066 13.971C15.9969 13.9579 15.8856 13.9665 15.7795 13.9965C15.6735 14.0264 15.5749 14.077 15.4899 14.1452C15.4049 14.2133 15.3353 14.2975 15.2854 14.3925L15.2531 14.4549L14.2927 16.2831C11.5448 14.8514 9.31433 12.6469 7.89826 9.96292L9.86268 8.97475C9.95883 8.92626 10.0439 8.8596 10.1127 8.77876C10.1816 8.69791 10.2329 8.60452 10.2635 8.50416C10.2941 8.4038 10.3035 8.29852 10.291 8.19461C10.2785 8.09069 10.2445 7.99026 10.1909 7.8993L10.1391 7.81357C10.1295 7.79764 10.1192 7.78204 10.1084 7.76681C9.22239 6.47463 8.78738 4.94352 8.86672 3.39644C8.87173 3.29164 8.85474 3.18695 8.81677 3.08864C8.7788 2.99033 8.72063 2.90042 8.64575 2.8243C8.57086 2.74819 8.48081 2.68743 8.38098 2.64567C8.28115 2.60391 8.17361 2.58201 8.06479 2.58128H7.94838H7.94515H0.847371C0.841982 2.58122 0.836592 2.58122 0.831203 2.58128H0.792399ZM1.78997 4.14302H7.34531C7.40837 5.48032 7.77376 6.7615 8.43504 7.93671L6.34936 8.98566C6.23577 9.04279 6.1379 9.12512 6.06381 9.22588C5.98972 9.32663 5.94153 9.44292 5.92321 9.56516C5.90489 9.68739 5.91697 9.81208 5.95846 9.92893C5.99994 10.0458 6.06964 10.1515 6.16181 10.2372H6.16666C7.84814 13.6615 10.6371 16.4452 14.144 18.0771C14.1257 18.0664 14.1079 18.0549 14.0906 18.0428L14.0551 18.0148L14.2135 18.113L14.1569 18.0849C14.2521 18.144 14.3592 18.1832 14.4711 18.1998C14.5831 18.2165 14.6974 18.2103 14.8067 18.1817C14.916 18.153 15.0178 18.1025 15.1056 18.0335C15.1934 17.9645 15.2651 17.8784 15.3162 17.781L16.3703 15.7688C17.5471 16.4059 18.862 16.7688 20.2102 16.8287V22.2371C10.262 21.6542 2.39627 13.9436 1.78997 4.14302ZM18.9184 6.40302C18.7086 6.40838 18.5091 6.49222 18.3622 6.63681L15.688 9.21166C15.5872 9.28331 15.505 9.37657 15.4479 9.48409C15.3909 9.59161 15.3605 9.71045 15.3592 9.83122C15.358 9.95199 15.3859 10.0714 15.4407 10.18C15.4955 10.2886 15.5757 10.3834 15.6751 10.457L18.3622 13.0474C18.4368 13.1219 18.526 13.1812 18.6246 13.2221C18.7233 13.2629 18.8293 13.2844 18.9367 13.2853C19.044 13.2862 19.1505 13.2665 19.2498 13.2273C19.3492 13.1881 19.4394 13.1303 19.5153 13.0571C19.5912 12.9839 19.6513 12.8969 19.6919 12.8011C19.7325 12.7054 19.753 12.6027 19.7521 12.4993C19.7511 12.3958 19.7288 12.2935 19.6865 12.1984C19.6441 12.1034 19.5825 12.0174 19.5053 11.9455L18.131 10.6207H27.1916C27.406 10.6207 27.6116 10.5386 27.7632 10.3924C27.9148 10.2463 28 10.048 28 9.84135C28 9.63466 27.9148 9.43643 27.7632 9.29029C27.6116 9.14414 27.406 9.06203 27.1916 9.06203H18.1326L19.5069 7.7372C19.623 7.62755 19.7022 7.4867 19.734 7.33304C19.7658 7.17937 19.7489 7.02003 19.6853 6.8758C19.6218 6.73157 19.5146 6.60916 19.3778 6.52454C19.241 6.43992 19.0809 6.39859 18.9184 6.40302Z" fill="#111111"/>
</svg>
