<svg width="27" height="25" viewBox="0 0 27 25" fill="none" xmlns="http://www.w3.org/2000/svg">
<path d="M16.4412 15.6724H6.02307C5.47079 15.6724 5.02307 15.2247 5.02307 14.6724V13.8422C5.02307 13.2899 5.47079 12.8422 6.02307 12.8422H16.3979C17.3774 12.8422 18.1875 12.6801 18.8285 12.3561C19.4694 12.0248 19.9447 11.5711 20.2544 10.995C20.5641 10.4116 20.7189 9.74189 20.7189 8.98572C20.7189 8.23676 20.5641 7.56701 20.2544 6.97648C19.9447 6.38596 19.473 5.92145 18.8393 5.58298C18.2055 5.2373 17.4062 5.06447 16.4412 5.06447H12.7313C12.179 5.06447 11.7313 5.51218 11.7313 6.06447V23.3359C11.7313 23.8881 11.2836 24.3359 10.7313 24.3359H9.40421C8.85192 24.3359 8.40421 23.8881 8.40421 23.3359V3.21265C8.40421 2.66036 8.85192 2.21265 9.40421 2.21265H16.4412C18.1191 2.21265 19.5198 2.51511 20.6433 3.12004C21.7739 3.72498 22.6201 4.53875 23.1818 5.56138C23.7508 6.584 24.0352 7.72185 24.0352 8.97492C24.0352 10.2424 23.7472 11.3838 23.171 12.3993C22.6021 13.4075 21.7523 14.2069 20.6217 14.7974C19.4982 15.3807 18.1047 15.6724 16.4412 15.6724ZM15.6032 17.5304C16.1555 17.5304 16.6032 17.9781 16.6032 18.5304V19.3714C16.6032 19.9237 16.1555 20.3714 15.6032 20.3714H6.02307C5.47079 20.3714 5.02307 19.9237 5.02307 19.3714V18.5304C5.02307 17.9781 5.47079 17.5304 6.02307 17.5304H15.6032Z" fill="#111111"/>
<rect y="3.30908" width="3.04194" height="30.4194" rx="1" transform="rotate(-45 0 3.30908)" fill="#111111"/>
<rect x="3" y="2.15088" width="3.04194" height="30.5322" transform="rotate(-45 3 2.15088)" fill="white"/>
</svg>
