<svg width="32" height="12" viewBox="0 0 32 12" fill="none" xmlns="http://www.w3.org/2000/svg">
<path d="M0.296877 5.79375C0.296877 8.89218 2.98438 11.5797 6.08281 11.5797C8.76875 11.5797 11.0422 9.72031 11.4547 7.24062L27.3641 7.24062L24.2656 10.3391L25.9188 11.9922L30.8766 6.82656L31.7047 6L30.8766 5.17344L25.9188 0.00781295L24.2656 1.86719L27.3641 4.96719L11.6609 4.96719C11.2484 2.27969 8.76875 0.214062 6.08281 0.214061C2.77656 0.214061 0.296878 2.69531 0.296877 5.79375ZM2.57031 5.79375C2.57032 3.93437 4.01719 2.28125 6.08281 2.28125C7.94219 2.28125 9.59531 3.72812 9.59531 5.79375C9.59531 7.65312 7.94219 9.30625 6.08281 9.30625C4.01719 9.30625 2.57031 7.65312 2.57031 5.79375Z" fill="#111111"/>
</svg>
