<svg width="31" height="27" viewBox="0 0 31 27" fill="none" xmlns="http://www.w3.org/2000/svg">
<path d="M22.6324 0C22.4743 0 22.3226 0.0632142 22.2108 0.175736C22.099 0.288258 22.0362 0.44087 22.0362 0.6V1.8276C21.8022 1.90745 21.5736 2.00245 21.3518 2.112L20.491 1.2444C20.3792 1.13192 20.2276 1.06873 20.0695 1.06873C19.9114 1.06873 19.7598 1.13192 19.648 1.2444L17.9287 2.976C17.817 3.08852 17.7542 3.2411 17.7542 3.4002C17.7542 3.5593 17.817 3.71188 17.9287 3.8244L18.7908 4.6908C18.6811 4.914 18.5881 5.1444 18.5082 5.3796H17.2885C17.1304 5.3796 16.9787 5.44281 16.8669 5.55534C16.7551 5.66786 16.6923 5.82047 16.6923 5.9796V8.4252C16.6923 8.58433 16.7551 8.73694 16.8669 8.84946C16.9787 8.96199 17.1304 9.0252 17.2885 9.0252H18.5058C18.5857 9.2604 18.6787 9.4896 18.7884 9.714L17.9299 10.5804C17.8182 10.6929 17.7554 10.8455 17.7554 11.0046C17.7554 11.1637 17.8182 11.3163 17.9299 11.4288L19.6468 13.1592C19.7022 13.2151 19.768 13.2594 19.8404 13.2897C19.9129 13.3199 19.9905 13.3355 20.0689 13.3355C20.1473 13.3355 20.225 13.3199 20.2974 13.2897C20.3698 13.2594 20.4356 13.2151 20.491 13.1592L21.3518 12.2916C21.5748 12.402 21.8013 12.498 22.0362 12.5772V13.8012C22.0362 13.9603 22.099 14.1129 22.2108 14.2255C22.3226 14.338 22.4743 14.4012 22.6324 14.4012H25.0599C25.218 14.4012 25.3697 14.338 25.4815 14.2255C25.5933 14.1129 25.6561 13.9603 25.6561 13.8012V12.576C25.8898 12.4956 26.1175 12.402 26.3405 12.2916L27.2013 13.1592C27.3131 13.2717 27.4647 13.3349 27.6228 13.3349C27.7809 13.3349 27.9325 13.2717 28.0443 13.1592L29.7636 11.4288C29.8753 11.3163 29.9381 11.1637 29.9381 11.0046C29.9381 10.8455 29.8753 10.6929 29.7636 10.5804L28.9015 9.714C29.0112 9.4896 29.1042 9.2604 29.1841 9.0252H30.4038C30.562 9.0252 30.7136 8.96199 30.8254 8.84946C30.9372 8.73694 31 8.58433 31 8.4252V5.9784C31 5.81927 30.9372 5.66666 30.8254 5.55414C30.7136 5.44161 30.562 5.3784 30.4038 5.3784H29.1865C29.1073 5.14285 29.0129 4.91275 28.9039 4.6896L29.7624 3.8232C29.8741 3.71068 29.9369 3.5581 29.9369 3.399C29.9369 3.2399 29.8741 3.08732 29.7624 2.9748L28.0455 1.2444C27.9901 1.18852 27.9243 1.14419 27.8519 1.11395C27.7794 1.0837 27.7018 1.06813 27.6234 1.06813C27.545 1.06813 27.4673 1.0837 27.3949 1.11395C27.3225 1.14419 27.2567 1.18852 27.2013 1.2444L26.3405 2.112C26.1188 2.0014 25.8902 1.9056 25.6561 1.8252V0.6C25.6561 0.44087 25.5933 0.288258 25.4815 0.175736C25.3697 0.0632142 25.218 0 25.0599 0H22.6324ZM23.2285 1.2H24.4638V2.2224C24.4641 2.35619 24.5089 2.48602 24.591 2.59126C24.6731 2.69649 24.7878 2.77109 24.9168 2.8032C25.3604 2.9112 25.7872 3.09 26.1771 3.3276C26.291 3.39668 26.4245 3.42547 26.5566 3.40938C26.6886 3.39329 26.8114 3.33325 26.9056 3.2388L27.6234 2.5176L28.4985 3.3984L27.7832 4.1208C27.6898 4.21567 27.6305 4.33917 27.6148 4.47176C27.599 4.60435 27.6276 4.73844 27.6961 4.8528C27.9322 5.2476 28.1063 5.6748 28.2148 6.1224C28.2468 6.25268 28.3212 6.3684 28.4263 6.45107C28.5313 6.53373 28.6609 6.57857 28.7942 6.5784H29.8077V7.824H28.7942C28.6609 7.82384 28.5313 7.86867 28.4263 7.95133C28.3212 8.034 28.2468 8.14972 28.2148 8.28C28.1063 8.7264 27.9286 9.1524 27.6937 9.546C27.6245 9.66085 27.5956 9.79577 27.6115 9.92914C27.6275 10.0625 27.6876 10.1866 27.782 10.2816L28.4985 11.004L27.6234 11.8848L26.908 11.1636C26.8136 11.0686 26.6903 11.0082 26.5578 10.9921C26.4253 10.976 26.2912 11.0051 26.1771 11.0748C25.7859 11.3129 25.3609 11.4897 24.9168 11.5992C24.7874 11.6314 24.6724 11.7064 24.5903 11.8121C24.5082 11.9178 24.4636 12.0482 24.4638 12.1824V13.2H23.2285V12.18C23.2287 12.0458 23.1842 11.9154 23.102 11.8097C23.0199 11.704 22.9049 11.629 22.7755 11.5968C22.3315 11.4883 21.9065 11.3123 21.5152 11.0748C21.4013 11.0057 21.2678 10.9769 21.1358 10.993C21.0038 11.0091 20.8809 11.0692 20.7867 11.1636L20.0689 11.8848L19.1938 11.004L19.9092 10.2816C20.0028 10.1866 20.0622 10.0629 20.078 9.93007C20.0938 9.79722 20.065 9.66288 19.9962 9.5484C19.7604 9.15453 19.5855 8.72683 19.4775 8.28C19.4455 8.14972 19.3711 8.034 19.266 7.95133C19.161 7.86867 19.0314 7.82384 18.8981 7.824H17.8846V6.5784H18.8981C19.0314 6.57857 19.161 6.53373 19.266 6.45107C19.3711 6.3684 19.4455 6.25268 19.4775 6.1224C19.586 5.676 19.7637 5.2488 19.9986 4.8564C20.0678 4.74155 20.0968 4.60663 20.0808 4.47326C20.0648 4.33988 20.0048 4.21577 19.9103 4.1208L19.1938 3.3984L20.0689 2.5176L20.7843 3.2388C20.8787 3.33382 21.002 3.39421 21.1345 3.41031C21.267 3.42641 21.4011 3.39729 21.5152 3.3276C21.9056 3.0895 22.3297 2.91267 22.7731 2.8032C22.903 2.77145 23.0185 2.69669 23.1011 2.59093C23.1837 2.48516 23.2286 2.35453 23.2285 2.22V1.2ZM23.8462 3.912C22.9804 3.91422 22.1507 4.26134 21.5385 4.87748C20.9263 5.49362 20.5814 6.32865 20.5792 7.2C20.5817 8.07148 20.9267 8.90657 21.5387 9.52302C22.1508 10.1395 22.9803 10.4872 23.8462 10.4904C24.712 10.4872 25.5415 10.1395 26.1536 9.52302C26.7656 8.90657 27.1106 8.07148 27.1131 7.2C27.1109 6.32865 26.766 5.49362 26.1538 4.87748C25.5416 4.26134 24.7119 3.91422 23.8462 3.912ZM23.8462 5.112C24.9991 5.112 25.9208 6.0396 25.9208 7.2C25.9208 8.3604 24.9991 9.2904 23.8462 9.2904C22.6932 9.2904 21.7715 8.3604 21.7715 7.2C21.7715 6.0396 22.6932 5.112 23.8462 5.112ZM7.88235 7.8C7.72424 7.8 7.5726 7.86321 7.4608 7.97574C7.349 8.08826 7.28619 8.24087 7.28619 8.4V10.2168C6.87127 10.3488 6.46946 10.5132 6.08196 10.716L4.80977 9.432C4.69797 9.31952 4.54637 9.25633 4.38829 9.25633C4.23021 9.25633 4.0786 9.31952 3.96681 9.432L1.62392 11.79C1.51216 11.9025 1.44938 12.0551 1.44938 12.2142C1.44938 12.3733 1.51216 12.5259 1.62392 12.6384L2.8985 13.9224C2.69819 14.3112 2.53365 14.7144 2.4025 15.132H0.596154C0.438044 15.132 0.28641 15.1952 0.17461 15.3077C0.062809 15.4203 0 15.5729 0 15.732V19.068C0 19.2271 0.062809 19.3797 0.17461 19.4923C0.28641 19.6048 0.438044 19.668 0.596154 19.668H2.40131C2.53246 20.0856 2.69581 20.49 2.89731 20.88L1.62154 22.1616C1.50978 22.2741 1.44699 22.4267 1.44699 22.5858C1.44699 22.7449 1.50978 22.8975 1.62154 23.01L3.96442 25.368C4.07622 25.4805 4.22783 25.5437 4.3859 25.5437C4.54398 25.5437 4.69559 25.4805 4.80738 25.368L6.08315 24.084C6.46946 24.2856 6.87008 24.45 7.285 24.582V26.4C7.285 26.5591 7.34781 26.7117 7.45961 26.8243C7.57141 26.9368 7.72304 27 7.88115 27H11.1934C11.3515 27 11.5031 26.9368 11.6149 26.8243C11.7267 26.7117 11.7895 26.5591 11.7895 26.4V24.5856C12.2045 24.4536 12.6063 24.2892 12.9938 24.0864L14.2672 25.3692C14.3789 25.4817 14.5306 25.5449 14.6886 25.5449C14.8467 25.5449 14.9983 25.4817 15.1101 25.3692L17.453 23.0112C17.5648 22.8987 17.6275 22.7461 17.6275 22.587C17.6275 22.4279 17.5648 22.2753 17.453 22.1628L16.1784 20.8788C16.3787 20.49 16.5433 20.0868 16.6744 19.6692H18.4808C18.6389 19.6692 18.7905 19.606 18.9023 19.4935C19.0141 19.3809 19.0769 19.2283 19.0769 19.0692V15.7332C19.0769 15.5741 19.0141 15.4215 18.9023 15.3089C18.7905 15.1964 18.6389 15.1332 18.4808 15.1332H16.6756C16.5455 14.7155 16.3795 14.31 16.1796 13.9212L17.4542 12.6396C17.566 12.5271 17.6287 12.3745 17.6287 12.2154C17.6287 12.0563 17.566 11.9037 17.4542 11.7912L15.1113 9.4332C14.9995 9.32072 14.8479 9.25753 14.6898 9.25753C14.5317 9.25753 14.3801 9.32072 14.2683 9.4332L12.9926 10.7172C12.607 10.5165 12.2049 10.3499 11.7907 10.2192V8.4C11.7907 8.24087 11.7279 8.08826 11.6161 7.97574C11.5043 7.86321 11.3527 7.8 11.1946 7.8H7.88115H7.88235ZM8.4785 9H10.5984V10.6104C10.5983 10.7446 10.6428 10.875 10.7249 10.9807C10.8071 11.0864 10.9221 11.1614 11.0515 11.1936C11.6775 11.3484 12.2766 11.598 12.828 11.934C12.9423 12.004 13.0766 12.0333 13.2094 12.0172C13.3421 12.0011 13.4657 11.9405 13.5601 11.8452L14.6892 10.7052L16.1892 12.216L15.06 13.3524C14.9656 13.4474 14.9056 13.5715 14.8896 13.7049C14.8736 13.8382 14.9026 13.9731 14.9718 14.088C15.3057 14.6436 15.5537 15.246 15.7075 15.876C15.7392 16.0065 15.8136 16.1225 15.9187 16.2054C16.0237 16.2883 16.1534 16.3333 16.2869 16.3332H17.8846V18.4692H16.2845C16.1516 18.4696 16.0226 18.5147 15.918 18.5973C15.8135 18.6799 15.7394 18.7953 15.7075 18.9252C15.5538 19.5549 15.3057 20.1574 14.9718 20.712C14.9026 20.8269 14.8736 20.9618 14.8896 21.0951C14.9056 21.2285 14.9656 21.3526 15.06 21.4476L16.1892 22.5876L14.6892 24.096L13.5601 22.9596C13.4659 22.8652 13.343 22.8051 13.211 22.789C13.079 22.7729 12.9455 22.8017 12.8316 22.8708C12.2796 23.2068 11.6787 23.4564 11.0527 23.6112C10.9234 23.6431 10.8085 23.7176 10.7261 23.8228C10.6438 23.9281 10.5989 24.058 10.5984 24.192V25.8H8.47731V24.192C8.47747 24.0578 8.43293 23.9274 8.35079 23.8217C8.26866 23.716 8.15368 23.641 8.02423 23.6088C7.39821 23.454 6.79919 23.2043 6.24769 22.8684C6.13346 22.7984 5.99915 22.7691 5.86638 22.7852C5.7336 22.8013 5.61006 22.8619 5.51562 22.9572L4.3865 24.0972L2.88658 22.5864L4.01569 21.45C4.1101 21.355 4.17011 21.2309 4.1861 21.0975C4.2021 20.9642 4.17316 20.8293 4.10392 20.7144C3.77 20.1594 3.52194 19.5565 3.36827 18.9264C3.3365 18.7959 3.26212 18.6799 3.15705 18.597C3.05198 18.5141 2.92231 18.4691 2.78881 18.4692H1.19231V16.3332H2.79238C2.92532 16.3328 3.05432 16.2878 3.15888 16.2051C3.26344 16.1225 3.33756 16.0071 3.36946 15.8772C3.52322 15.2471 3.77128 14.6442 4.10512 14.0892C4.17406 13.9745 4.20283 13.8398 4.18683 13.7067C4.17084 13.5736 4.11101 13.4497 4.01688 13.3548L2.88777 12.2148L4.38769 10.7064L5.51681 11.8428C5.61101 11.9372 5.73387 11.9973 5.86587 12.0134C5.99787 12.0295 6.13143 12.0007 6.24531 11.9316C6.79735 11.5956 7.39827 11.346 8.02423 11.1912C8.1535 11.1593 8.26845 11.0848 8.35078 10.9796C8.4331 10.8743 8.47807 10.7444 8.4785 10.6104V9ZM9.53846 13.134C8.41498 13.1362 7.33814 13.5864 6.54372 14.3859C5.74929 15.1855 5.30201 16.2693 5.29981 17.4C5.3017 18.5311 5.7488 19.6153 6.54322 20.4153C7.33765 21.2153 8.41466 21.6659 9.53846 21.6684C10.6623 21.6659 11.7393 21.2153 12.5337 20.4153C13.3281 19.6153 13.7752 18.5311 13.7771 17.4C13.7749 16.2693 13.3276 15.1855 12.5332 14.3859C11.7388 13.5864 10.6619 13.1362 9.53846 13.134ZM9.53846 14.334C9.93887 14.3327 10.3356 14.4112 10.7057 14.5648C11.0759 14.7184 11.4122 14.9442 11.6954 15.2292C11.9785 15.5141 12.2028 15.8526 12.3555 16.2252C12.5081 16.5978 12.5861 16.997 12.5848 17.4C12.5862 17.8031 12.5084 18.2026 12.3559 18.5754C12.2033 18.9481 11.979 19.2868 11.6959 19.572C11.4127 19.8572 11.0764 20.0832 10.7061 20.237C10.3358 20.3909 9.93902 20.4695 9.53846 20.4684C9.1379 20.4695 8.74107 20.3909 8.37082 20.237C8.00057 20.0832 7.6642 19.8572 7.38107 19.572C7.09793 19.2868 6.87363 18.9481 6.72107 18.5754C6.56851 18.2026 6.4907 17.8031 6.49212 17.4C6.49086 16.997 6.56879 16.5978 6.72144 16.2252C6.87409 15.8526 7.09843 15.5141 7.38156 15.2292C7.66469 14.9442 8.00102 14.7184 8.37119 14.5648C8.74135 14.4112 9.13806 14.3327 9.53846 14.334Z" fill="#111111"/>
</svg>
