<svg width="128" height="36" viewBox="0 0 128 36" fill="none" xmlns="http://www.w3.org/2000/svg">
<path d="M2.03324 22.6223C2.03324 22.6223 4.23481 25.5855 8.12769 25.5855C10.3293 25.5855 12.295 24.5333 12.295 22.4655C12.295 18.1755 1.20765 18.9555 1.20765 12.6367C1.20765 9.08694 4.27412 7.33195 8.24563 7.33195C10.2506 7.33195 14.2606 8.11195 14.2606 10.8817V12.5587H11.7446V11.6227C11.7446 10.1797 9.62161 9.63375 8.32426 9.63375C5.5723 9.63375 3.92112 10.5697 3.92112 12.4807C3.92112 16.8885 15.0084 15.8745 15.0084 22.3875C15.0084 25.6635 12.0206 27.8873 8.08838 27.8873C2.93745 27.8873 0.5 24.4545 0.5 24.4545L2.03324 22.6223ZM19.9595 3.15979C19.9595 2.6138 19.645 2.3018 19.0946 2.3018H17.4434V0H20.2347C21.9252 0 22.6337 0.584997 22.6337 2.26199V15.2895H24.678C25.4249 15.2895 26.3685 15.0555 26.9188 14.3535L31.9903 7.80158H35.2534L29.5521 14.9783C28.5692 16.1873 28.0581 16.3831 28.0581 16.3831V16.4611C28.0581 16.4611 28.6478 16.7341 29.2769 17.9041L32.8552 24.2619C33.2091 24.9241 33.6022 25.1199 34.6637 25.1199H35.7251V27.4209H33.8774C31.9117 27.4209 31.3613 27.1089 30.4571 25.4709L26.5249 18.4501C26.0924 17.6701 25.1489 17.5921 24.4413 17.5921H22.6328V27.4209H19.9587V3.15979H19.9595ZM40.3248 33.2302C42.0547 33.2302 43.2341 31.8262 43.981 30.0314L45.1604 27.3405L38.2011 10.9987C37.8866 10.2967 37.5327 10.1017 36.8251 10.1017H36.432V7.80076H37.6507C39.4198 7.80076 39.9702 8.19076 40.6779 9.94575L45.7493 22.1925C46.1425 23.1675 46.457 24.2985 46.457 24.2985H46.5356C46.5356 24.2985 46.8108 23.1675 47.2039 22.1925L52.0788 9.94575C52.7472 8.19076 53.3369 7.80076 55.1461 7.80076H56.3649V10.1017H55.9717C55.2641 10.1017 54.8709 10.2967 54.5957 10.9987L46.0638 31.5142C45.0409 34.0102 43.0367 35.61 40.4018 35.61C37.6499 35.61 36.1158 33.6982 36.1158 33.6982L37.3739 31.7482C37.3755 31.788 38.6335 33.2302 40.3248 33.2302ZM68.4342 7.05977C74.174 7.05977 77.3199 11.2327 77.3199 16.4985C77.3199 17.0835 77.2012 18.3315 77.2012 18.3315H63.3619C63.755 21.8423 66.3497 23.6753 69.3769 23.6753C72.6015 23.6753 74.9996 21.4523 74.9996 21.4523L77.0832 24.8851C77.0832 24.8851 74.0167 27.8881 69.0231 27.8881C62.3782 27.8881 58.2503 23.1301 58.2503 17.4743C58.2503 11.3497 62.4184 7.05977 68.4342 7.05977ZM72.2075 14.8995C72.1289 12.5205 70.4785 10.8826 68.4342 10.8826C65.878 10.8826 64.0695 12.4035 63.5191 14.8995H72.2075ZM82.1531 12.5977C82.1531 12.0127 81.8385 11.7397 81.2882 11.7397H79.7148V7.52776H84.3153C86.0844 7.52776 86.9493 8.34676 86.9493 9.75075V10.3357C86.9493 10.7647 86.8707 11.1937 86.8707 11.1937H86.9493C87.8142 9.51675 89.9765 7.05977 94.0266 7.05977C98.4699 7.05977 101.025 9.36075 101.025 14.6265V22.3883C101.025 22.9343 101.34 23.2471 101.89 23.2471H103.464V27.4201H98.7058C96.8179 27.4201 96.0316 26.6401 96.0316 24.7673V15.6405C96.0316 13.2217 95.4026 11.5837 92.8865 11.5837C90.2124 11.5837 88.2074 13.2607 87.4997 15.6405C87.2245 16.4595 87.1074 17.3565 87.1074 18.2925V27.4193H82.1531V12.5977ZM114.313 7.05977C118.952 7.05977 120.486 9.86775 120.486 9.86775H120.564V9.36075C120.564 8.46376 121.194 7.52776 122.766 7.52776H127.405V11.7397H125.872C125.361 11.7397 125.007 12.0127 125.007 12.5197V26.2095C125.007 33.0344 119.66 35.6092 114.43 35.6092C111.914 35.6092 109.24 34.9072 107.314 33.8932L108.848 29.9924C108.848 29.9924 111.324 31.3192 114.392 31.3192C117.419 31.3192 120.053 30.0314 120.053 26.4435V25.5075C120.053 25.0395 120.092 24.4545 120.092 24.4545H120.014C118.834 26.1315 117.104 27.0293 114.431 27.0293C108.691 27.0293 105.428 22.4265 105.428 16.9657C105.428 11.5049 108.533 7.05977 114.313 7.05977ZM120.171 17.0055C120.171 12.4807 117.891 11.2717 115.177 11.2717C112.15 11.2717 110.498 13.4557 110.498 16.8097C110.498 20.2815 112.267 22.8555 115.492 22.8555C117.891 22.8563 120.171 21.4905 120.171 17.0055Z" fill="white"/>
</svg>
