<svg width="136" height="31" viewBox="0 0 136 31" fill="none" xmlns="http://www.w3.org/2000/svg">
<path fill-rule="evenodd" clip-rule="evenodd" d="M19.3632 21.5748C19.3632 26.3286 15.6008 29.7761 9.6245 29.7761C6.15915 29.6795 2.87513 28.1964 0.5 25.6556L2.49872 23.4313C4.36945 25.2236 6.5706 26.9655 9.58495 26.9655C12.9332 26.9655 16.5432 25.0761 16.5432 21.6836C16.5432 18.8659 14.3176 17.028 9.64079 15.5787C4.31129 13.9399 1.60406 11.7157 1.60406 7.53417C1.60406 3.396 5.08494 0 10.0445 0C13.7487 0 16.0662 1.58854 18.322 3.61842L16.3571 5.81335C14.3793 4.05037 12.4946 2.85516 10.1818 2.85516C7.31284 2.85516 4.48113 4.71647 4.48113 7.39604C4.48113 9.82392 5.8679 11.3703 10.7635 12.8781C15.2472 14.2676 19.3632 16.4204 19.3632 21.5735V21.5748ZM43.5538 2.74178C43.5538 4.04556 44.6038 5.10248 45.8992 5.10248C46.5214 5.10279 47.118 4.85418 47.5579 4.41139C47.9979 3.96861 48.2448 3.36797 48.2446 2.74178C48.2446 1.43801 47.1945 0.381093 45.8992 0.381093C44.6038 0.381093 43.5538 1.43801 43.5538 2.74178ZM66.2505 0.864936H63.4233V29.3099H66.2505V0.864936ZM72.8484 28.363C72.8484 28.363 74.5889 29.7853 80.3872 29.7853L80.3837 29.7842C86.1076 29.7842 90.753 25.5722 90.753 19.8175C90.753 14.0626 86.111 9.86708 80.3872 9.86708C78.7635 9.82333 77.1516 10.1549 75.6755 10.8364V0.864936H72.8484V28.363ZM94.0537 19.8424C94.0533 25.5997 98.6915 30.2673 104.414 30.268C110.136 30.268 114.775 25.6008 114.776 19.8432C114.776 14.0858 110.137 9.41861 104.415 9.41839C98.6931 9.41818 94.0541 14.0851 94.0537 19.8424ZM131.919 29.3187H135.609L127.45 19.5404L135.059 10.3696H131.389L125.611 17.3349L119.803 10.3696H116.113L123.776 19.5532L115.674 29.3187H119.342L125.614 21.7587L131.919 29.3187ZM104.431 12.233C101.38 12.2325 98.6282 14.082 97.4602 16.9188C96.2921 19.7557 96.9375 23.0212 99.0954 25.1925C101.253 27.3638 104.499 28.0133 107.318 26.8379C110.137 25.6626 111.975 22.894 111.975 19.8234C111.974 15.6315 108.597 12.2336 104.431 12.233ZM80.3868 12.7176C78.6986 12.7415 77.0566 13.2768 75.6751 14.2537V25.9942C77.1393 26.7103 78.7616 27.0367 80.3868 26.9425C84.5494 26.9425 87.9256 24.0156 87.9256 19.8301C87.9256 15.6446 84.546 12.7165 80.3834 12.7165L80.3868 12.7176ZM54.0012 0.865256H56.8283V29.3101H54.0012V0.865256ZM36.5653 29.3123L26.6764 19.3619L35.6287 10.3481H39.6262L30.6739 19.3619L40.5628 29.3123H36.5653ZM23.8405 0.864936V29.3099H26.6675V0.864936H23.8405ZM44.585 29.3123H47.412V10.3481H44.585V29.3123Z" fill="white"/>
</svg>
