<svg width="171" height="36" viewBox="0 0 171 36" fill="none" xmlns="http://www.w3.org/2000/svg">
<path fill-rule="evenodd" clip-rule="evenodd" d="M12.4622 2.88741H10.7706C10.0456 2.88741 9.44144 3.00772 8.83729 3.24834C8.23314 3.48895 7.62899 3.84988 7.14567 4.45142C6.66234 4.93266 6.29985 5.65451 5.93736 6.61698C5.57487 7.45914 5.45404 8.54192 5.45404 9.86531C5.45404 11.0684 5.57487 12.1512 5.81653 12.9933C6.05819 13.8355 6.42068 14.5574 6.90401 15.0386C7.38733 15.5198 7.99148 15.8807 8.59563 16.1214C9.19978 16.362 9.92476 16.4823 10.6497 16.4823H12.4622V2.88741ZM9.6831 19.2494L4.36657 31.2803H0.5L6.29985 18.4072C4.97072 17.6854 3.76242 16.7229 3.03744 15.2792C2.19162 13.9558 1.82913 12.0309 1.82913 9.74501C1.82913 8.06068 2.07079 6.61698 2.55412 5.41389C2.91661 4.33111 3.64159 3.24834 4.4874 2.40617C5.33321 1.68432 6.29985 0.96247 7.38733 0.601544C8.4748 0.240617 9.6831 0 10.8914 0H15.9663V31.2803H12.4622V19.2494H9.6831Z" fill="white"/>
<path fill-rule="evenodd" clip-rule="evenodd" d="M88.8272 31.6407C86.4106 31.6407 84.5981 30.6782 83.269 28.8736C81.9399 26.9487 81.2149 24.1816 81.2149 20.3317C81.2149 18.6473 81.3357 17.0833 81.6982 15.6396C82.0607 14.1959 82.544 12.9928 83.1482 12.0304C83.7523 11.0679 84.5981 10.346 85.5648 9.74451C86.5314 9.26327 87.6189 8.90234 88.948 8.90234C89.9146 8.90234 90.7605 9.02265 91.3646 9.26327C91.9688 9.50389 92.5729 9.7445 93.0562 10.1054L92.5729 13.3538C92.0896 12.9928 91.6063 12.6319 90.8813 12.271C90.2772 11.9101 89.5522 11.7898 88.948 11.7898C87.7397 11.7898 86.7731 12.5116 85.9273 13.835C85.0814 15.1584 84.7189 17.324 84.7189 20.0911C84.7189 22.8582 85.0814 25.0237 85.6856 26.4674C86.2897 27.9111 87.3772 28.7533 88.8272 28.7533C89.673 28.7533 90.398 28.633 91.0021 28.3924C91.6063 28.1517 92.0896 27.7908 92.5729 27.4299L93.4187 29.9564C92.8146 30.4376 92.2104 30.7985 91.4855 31.1595C90.7605 31.4001 89.9147 31.6407 88.8272 31.6407ZM71.3068 20.3317V31.2798H67.9235V9.26327H71.3068V19.4895L76.6233 9.26327H80.1274L74.69 19.6098L80.9732 31.2798H77.2275L71.3068 20.3317ZM58.378 11.6694C57.2905 11.6694 56.5655 12.271 56.203 13.4741C55.7197 14.6772 55.478 16.2412 55.3572 18.1661H60.9154C60.9154 17.2036 60.9154 16.3615 60.7946 15.5193C60.6737 14.6772 60.5529 14.0756 60.4321 13.4741C60.1904 12.8725 59.9487 12.3913 59.5863 12.1507C59.2238 11.9101 58.8613 11.6694 58.378 11.6694ZM64.4195 29.8361C63.6945 30.4376 62.9695 30.7985 62.0029 31.1595C61.157 31.5204 60.0696 31.6407 58.9821 31.6407C56.6863 31.6407 54.8739 30.7985 53.6656 28.9939C52.3364 27.1893 51.7323 24.6628 51.7323 21.1738C51.7323 19.3692 51.8531 17.8052 52.0948 16.2412C52.3364 14.7975 52.6989 13.4741 53.3031 12.3913C53.7864 11.3085 54.5114 10.4664 55.3572 9.86481C56.203 9.26327 57.1697 8.90234 58.378 8.90234C59.2238 8.90234 60.0696 9.14296 60.9154 9.50389C61.6404 9.86481 62.3653 10.4664 62.8487 11.3085C63.332 12.1507 63.8153 13.2335 64.057 14.4365C64.2986 15.7599 64.5403 17.324 64.5403 19.1286V21.0535H55.3572C55.3572 23.58 55.7197 25.5049 56.4447 26.708C57.1696 28.0314 58.1363 28.633 59.5863 28.633C60.5529 28.633 61.3987 28.5127 62.1237 28.1517C62.8487 27.7908 63.4528 27.4299 63.9361 27.1893L64.4195 29.8361ZM44.4825 12.0304H40.7367V12.3913C40.7367 13.5944 40.7367 14.7975 40.6159 16.2412C40.6159 17.6849 40.4951 19.0083 40.3742 20.452C40.2534 21.8957 40.0117 23.3394 39.7701 24.6628C39.5284 26.1065 39.1659 27.3096 38.6826 28.5127H44.4825V12.0304ZM49.6782 35.6109H46.6574V31.2798H37.2326V35.6109H34.2119V28.5127H35.541C36.0243 27.3096 36.3868 26.1065 36.7493 24.6628C36.991 23.2191 37.2326 21.7754 37.4743 20.3317C37.5951 18.888 37.716 17.324 37.8368 15.7599C37.8368 14.1959 37.9576 12.6319 37.9576 11.1882V9.26327H48.2282V28.5127H49.9198V35.6109H49.6782ZM32.1578 9.26327V31.2798H28.7745V21.4144H23.6997V31.2798H20.3164V9.26327H23.6997V18.6473H28.7745V9.26327H32.1578Z" fill="white"/>
<path fill-rule="evenodd" clip-rule="evenodd" d="M108.642 1.80463V31.2803H106.467V1.80463H100.305V0H114.804V1.80463H108.642Z" fill="white"/>
<path fill-rule="evenodd" clip-rule="evenodd" d="M119.156 30.0773C120.123 30.0773 121.089 29.5961 121.814 28.7539C122.539 27.9117 123.144 26.8289 123.506 25.7461V19.6102H121.089C119.277 19.6102 117.948 20.0914 116.981 20.9336C116.015 21.7758 115.652 23.2195 115.652 25.1445C115.652 26.7086 116.015 27.9117 116.619 28.7539C117.344 29.5961 118.189 30.0773 119.156 30.0773ZM124.11 31.2805C123.989 31.0398 123.868 30.5586 123.868 30.1976C123.748 29.7164 123.627 29.1148 123.627 28.393C123.144 29.4758 122.419 30.318 121.694 30.9195C120.848 31.5211 120.002 31.882 118.794 31.882C117.344 31.882 116.135 31.2805 115.169 30.1976C114.202 29.1148 113.719 27.5508 113.719 25.5055C113.719 23.0992 114.323 21.4148 115.652 20.0914C116.86 18.8883 118.673 18.2867 121.089 18.2867H123.506V15.5195C123.506 13.8352 123.144 12.632 122.539 11.7898C121.935 11.068 120.969 10.707 119.76 10.707C118.794 10.707 117.948 10.9477 117.102 11.3086C116.256 11.7898 115.652 12.2711 115.048 13.1133L114.444 11.1883C114.927 10.5867 115.531 10.1055 116.377 9.62422C117.223 9.14297 118.31 8.90234 119.639 8.90234C121.452 8.90234 122.902 9.38359 123.868 10.4664C124.835 11.5492 125.318 13.1133 125.318 15.2789V27.3102C125.318 28.032 125.318 28.8742 125.439 29.5961C125.56 30.318 125.681 30.9195 125.802 31.4008H124.11V31.2805Z" fill="white"/>
<path fill-rule="evenodd" clip-rule="evenodd" d="M132.205 31.2809H130.15V9.26367H132.205V19.6105L139.696 9.26367H141.629L134.379 19.4902L142.233 31.2809H139.938L132.205 19.8512V31.2809Z" fill="white"/>
<path fill-rule="evenodd" clip-rule="evenodd" d="M150.449 29.9574C151.174 29.9574 151.778 29.8371 152.261 29.5965C152.745 29.3559 153.228 29.1152 153.591 28.7543C154.074 28.3934 154.436 28.0324 154.678 27.5512L155.282 29.2355C154.92 29.7168 154.557 30.0777 154.074 30.4387C153.711 30.7996 153.107 31.0402 152.503 31.2808C151.899 31.5215 151.053 31.6418 150.207 31.6418C148.032 31.6418 146.22 30.6793 145.012 28.634C143.803 26.5887 143.199 23.8215 143.199 20.2121C143.199 16.6027 143.803 13.7152 145.012 11.6699C146.22 9.62461 147.912 8.66211 150.207 8.66211C151.295 8.66211 152.261 8.90273 153.107 9.26367C153.953 9.62461 154.557 10.1059 155.041 10.7074L154.436 12.873C153.953 12.1512 153.349 11.6699 152.624 11.0684C151.899 10.5871 151.053 10.3465 150.207 10.3465C148.516 10.3465 147.307 11.1887 146.462 12.873C145.616 14.5574 145.253 16.9637 145.253 20.0918C145.253 23.0996 145.616 25.5059 146.462 27.1902C147.428 29.1152 148.637 29.9574 150.449 29.9574Z" fill="white"/>
<path fill-rule="evenodd" clip-rule="evenodd" d="M168.818 15.8801C168.818 15.2785 168.818 14.7973 168.818 14.316C168.818 13.8348 168.939 13.3535 168.939 12.8723H168.818C168.697 13.3535 168.455 13.8348 168.335 14.316C168.093 14.7973 167.972 15.2785 167.73 15.7598L160.602 31.2801H158.789V9.26289H160.722V24.5426C160.722 25.1441 160.722 25.6254 160.722 26.1066C160.722 26.5879 160.602 27.0691 160.602 27.5504H160.722C160.843 27.0691 161.085 26.5879 161.206 26.1066C161.447 25.6254 161.568 25.1441 161.81 24.6629L168.939 9.14258H170.751V31.2801H168.818V15.8801Z" fill="white"/>
</svg>
