<svg width="153" height="52" viewBox="0 0 153 52" fill="none" xmlns="http://www.w3.org/2000/svg">
<path d="M102.544 43.8294C101.588 45.6962 100.257 45.4908 98.7949 45.4908V51.5204C99.7815 51.6692 100.778 51.7441 101.776 51.7444C103.209 51.7993 104.624 51.4082 105.823 50.6253C107.023 49.8424 107.947 48.7067 108.469 47.3762C109.931 44.2215 110.156 38.3412 110.887 31.9384H117.861V51.1284H124.61V26.1328H104.794C104.007 34.4771 103.613 41.888 102.544 43.8294Z" fill="white"/>
<path fill-rule="evenodd" clip-rule="evenodd" d="M73.2033 35.7847C73.5918 32.8943 75.0434 30.25 77.2772 28.3638C79.5109 26.4776 82.368 25.4836 85.2955 25.574C92.5883 25.574 97.6501 30.8754 97.6501 38.6408C97.6501 46.4061 92.5883 51.7075 85.2955 51.7075C82.368 51.7979 79.5109 50.8039 77.2772 48.9177C75.0434 47.0315 73.5918 44.3873 73.2033 41.4968H69.8663V51.0915H63.1172V26.134H69.8663V35.7287L73.2033 35.7847ZM79.5025 38.6594C79.5025 43.0088 81.8459 45.7341 85.2955 45.7341C88.745 45.7341 91.1072 43.0088 91.1072 38.6594C91.1072 34.3101 88.7638 31.5847 85.2955 31.5847C81.8272 31.5847 79.5025 34.3287 79.5025 38.6594Z" fill="white"/>
<path fill-rule="evenodd" clip-rule="evenodd" d="M130.74 26.9555C133.81 26.0043 137.011 25.5382 140.226 25.5742C151.174 25.5742 152.149 32.7609 152.149 37.1289V51.129H146V48.5343H145.719C144.73 49.5787 143.531 50.4031 142.2 50.9532C140.869 51.5033 139.436 51.7668 137.995 51.7263C130.683 51.7263 128.621 46.9476 128.621 43.6809C128.621 40.4143 130.496 35.6356 139.87 35.6356C141.753 35.6542 143.632 35.8039 145.494 36.0836V35.6169C145.494 34.3102 144.894 31.5476 139.363 31.5476C136.446 31.5305 133.545 31.9909 130.777 32.9102L130.74 26.9555ZM139.626 46.1823C140.742 46.2278 141.854 46.0077 142.868 45.5403C143.882 45.0728 144.769 44.3714 145.456 43.4943V40.4329H141.707C137.207 40.4329 135.914 41.9076 135.914 43.4943C135.914 45.081 137.114 46.1823 139.626 46.1823Z" fill="white"/>
<path d="M27.9464 50.6429C29.7715 45.1525 32.8696 40.1672 36.9898 36.0907C41.1099 32.0143 46.1363 28.9612 51.662 27.1788C51.949 27.0821 52.1987 26.8991 52.3767 26.655C52.5547 26.4109 52.6522 26.1178 52.6556 25.8161C52.6522 25.5145 52.5547 25.2214 52.3767 24.9773C52.1987 24.7332 51.949 24.5501 51.662 24.4535C46.1343 22.6692 41.1066 19.6133 36.9863 15.5335C32.866 11.4536 29.769 6.46458 27.9464 0.970696C27.8451 0.685433 27.6571 0.438673 27.4085 0.264714C27.1598 0.0907552 26.8629 -0.00176059 26.5591 2.53791e-05C26.2578 -0.000642359 25.9638 0.0925952 25.7183 0.266668C25.4729 0.44074 25.2883 0.68692 25.1905 0.970696C23.3698 6.46256 20.2757 11.4503 16.1588 15.53C12.0419 19.6097 7.01788 22.6667 1.49366 24.4535C1.20359 24.5452 0.950633 24.7269 0.771832 24.9721C0.593032 25.2174 0.497784 25.5131 0.500039 25.8161C0.500687 26.1185 0.597058 26.4129 0.775445 26.6575C0.953832 26.9022 1.20515 27.0846 1.49366 27.1788C7.01656 28.9624 12.0399 32.0161 16.1569 36.0926C20.2738 40.1691 23.3686 45.1538 25.1905 50.6429C25.2916 50.9263 25.4784 51.1715 25.7251 51.345C25.9718 51.5184 26.2664 51.6115 26.5685 51.6115C26.8705 51.6115 27.1651 51.5184 27.4118 51.345C27.6586 51.1715 27.8453 50.9263 27.9464 50.6429Z" fill="url(#paint0_radial_1_172)"/>
<path opacity="0.8" d="M1.49219 27.1797C7.01509 28.9633 12.0385 32.0171 16.1554 36.0938C20.2723 40.1704 23.3671 45.1552 25.189 50.6445C25.2847 50.9348 25.4707 51.1873 25.7202 51.3652C25.9696 51.5431 26.2695 51.6372 26.5764 51.6339C26.8807 51.6361 27.1777 51.5413 27.424 51.3633C27.6703 51.1852 27.8528 50.9333 27.9449 50.6445C29.7701 45.1539 32.8681 40.1685 36.9883 36.0919C41.1084 32.0153 46.1349 28.9621 51.6605 27.1797C43.493 29.412 35.0441 30.4557 26.5764 30.2785C18.1086 30.4557 9.65969 29.412 1.49219 27.1797Z" fill="url(#paint1_radial_1_172)"/>
<defs>
<radialGradient id="paint0_radial_1_172" cx="0" cy="0" r="1" gradientUnits="userSpaceOnUse" gradientTransform="translate(45.4959 9.20908) scale(58.1548 57.5496)">
<stop stop-color="#B2B2B2"/>
<stop offset="0.23" stop-color="#B2B2B2"/>
<stop offset="0.3" stop-color="#B0B0B0"/>
<stop offset="0.46" stop-color="#ABABAB"/>
<stop offset="0.67" stop-color="#A3A3A3"/>
<stop offset="0.94" stop-color="#979797"/>
<stop offset="0.95" stop-color="#969696"/>
<stop offset="1" stop-color="#969696"/>
</radialGradient>
<radialGradient id="paint1_radial_1_172" cx="0" cy="0" r="1" gradientUnits="userSpaceOnUse" gradientTransform="translate(40.1173 22.0137) scale(32.8644 16.0166)">
<stop stop-color="#3F3F3F"/>
<stop offset="0.09" stop-color="#434343" stop-opacity="0.96"/>
<stop offset="0.24" stop-color="#4D4D4D" stop-opacity="0.84"/>
<stop offset="0.44" stop-color="#5D5D5D" stop-opacity="0.66"/>
<stop offset="0.67" stop-color="#747474" stop-opacity="0.4"/>
<stop offset="0.94" stop-color="#909090" stop-opacity="0.08"/>
<stop offset="1" stop-color="#969696" stop-opacity="0.01"/>
</radialGradient>
</defs>
</svg>
