<svg width="171" height="36" viewBox="0 0 171 36" fill="none" xmlns="http://www.w3.org/2000/svg">
<path fill-rule="evenodd" clip-rule="evenodd" d="M159.979 17.8066C162.932 17.8066 164.67 19.3626 164.67 22.8202C164.67 26.4506 162.759 27.8337 159.805 27.8337H158.589V17.8066H159.979ZM170.75 8.644H168.839V29.3896H170.75V8.644ZM156.678 29.3896H159.979C163.975 29.3896 166.581 27.1422 166.581 22.8202C166.581 18.4982 163.975 16.4236 159.979 16.4236H158.416V8.81688H156.505L156.678 29.3896ZM153.204 8.47112V8.644H141.738V10.1999H146.602V29.3896H148.513V10.1999H153.378L153.204 8.47112ZM134.094 29.7354C137.916 29.7354 140.522 25.932 140.522 18.3253C140.522 12.2745 138.437 8.12536 134.963 8.12536C132.704 8.12536 131.141 10.027 130.272 11.9287L130.098 8.47112H128.361V35.6133H130.272V27.8337C131.314 29.0438 132.704 29.7354 134.094 29.7354ZM134.268 28.1794C132.357 28.1794 131.314 27.315 130.446 25.7591V14.1762C131.314 11.9287 132.878 10.027 134.789 10.027C137.221 10.027 138.611 13.3118 138.611 18.671C138.611 25.0676 136.874 28.1794 134.268 28.1794ZM122.628 29.3896H124.365C124.192 28.5252 123.844 26.9693 123.844 25.5862V14.349C123.844 10.1999 121.933 8.29824 118.459 8.29824C116.027 8.29824 114.289 9.33552 113.595 10.3728L114.116 12.2745C115.158 10.8914 116.722 10.027 118.459 10.027C120.717 10.027 121.933 11.4101 121.933 14.5219V17.1151H119.675C115.158 17.1151 112.726 19.3626 112.726 23.8574C112.726 27.6608 114.637 29.9082 117.416 29.9082C119.501 29.9082 120.891 28.6981 121.933 26.6235C122.281 28.0066 122.455 28.871 122.628 29.3896ZM118.111 28.1794C116.2 28.1794 114.811 26.4506 114.811 23.5117C114.811 19.8812 116.548 18.3253 119.849 18.3253H122.107V24.0303C121.412 26.4506 120.022 28.1794 118.111 28.1794ZM109.425 29.3896H111.684L102.476 13.4846L110.989 0H109.078L100.391 13.6575V0H98.3068V29.3896H100.391V13.8304L109.425 29.3896Z" fill="white"/>
<path fill-rule="evenodd" clip-rule="evenodd" d="M55.2246 11.0649C57.1356 11.0649 57.6568 13.6581 57.6568 17.1157H52.2713C52.445 13.4852 53.1399 11.0649 55.2246 11.0649ZM42.1953 26.797H36.6361C38.3733 22.475 38.547 16.0784 38.547 11.7564V11.4107H42.1953V26.797ZM84.0629 29.7359C85.9739 29.7359 87.3637 29.0444 88.4061 28.18L87.5374 25.7597C86.8425 26.4512 85.6265 26.9699 84.0629 26.9699C81.4571 26.9699 80.241 24.0309 80.241 18.8445C80.241 13.6581 81.9782 11.0649 84.2367 11.0649C85.6265 11.0649 86.8425 11.7564 87.7112 12.4479L88.2323 9.33611C87.3637 8.81747 86.3214 8.29883 84.4104 8.29883C79.5461 8.29883 76.9402 12.4479 76.9402 19.0174C76.7665 26.1055 79.5461 29.7359 84.0629 29.7359ZM72.9446 29.3902H76.419L70.5124 18.3259L75.7241 8.64459H72.4234L67.3854 18.153V8.64459H64.0846V29.3902H67.3854V19.0174L72.9446 29.3902ZM27.2549 8.64459V17.4615H22.3906V8.64459H19.0898V29.3902H22.3906V20.0547H27.2549V29.3902H30.382V8.64459H27.2549ZM60.9575 28.0071L60.2626 25.5868C59.394 26.1055 58.0042 26.9699 56.0932 26.9699C53.4874 26.9699 52.2713 24.5496 52.2713 19.8818H60.9575V18.153C60.9575 11.0649 58.6991 8.47171 55.2246 8.47171C50.8815 8.47171 48.9705 13.3124 48.9705 20.0547C48.9705 26.4512 51.5764 29.9088 55.9195 29.9088C57.8305 29.736 59.5677 29.0444 60.9575 28.0071ZM46.8858 26.797H45.1486V8.64459H35.42V10.3734C35.42 15.9056 35.2463 22.3021 33.3353 26.6241H32.2929V33.3664H35.2463V29.2173H44.1062V33.3664H47.0595L46.8858 26.797Z" fill="white"/>
<path fill-rule="evenodd" clip-rule="evenodd" d="M11.7921 18.1524V29.3896H14.9192V0H10.2286C5.53802 0 1.71607 3.11184 1.71607 9.16264C1.71607 13.4846 3.45332 15.905 6.0592 17.288L0.5 29.3896H4.14822L9.18624 18.1524H11.7921ZM11.7921 15.5592H10.0549C7.27527 15.5592 5.01685 14.0033 5.01685 9.33552C5.01685 4.49488 7.449 2.76608 10.0549 2.76608H11.7921V15.5592Z" fill="white"/>
</svg>
