<svg width="78" height="37" viewBox="0 0 78 37" fill="none" xmlns="http://www.w3.org/2000/svg">
<path d="M15.1521 29.0932C15.1521 29.1752 15.1521 29.3391 15.1521 29.4211C15.1521 29.503 15.1521 29.585 15.0698 29.585C15.0698 29.667 14.9874 29.6669 14.9874 29.6669H14.9051H12.3535V31.716H14.7405H14.8228L14.9051 31.798C14.9051 31.798 14.9051 31.88 14.9874 31.9619C14.9874 32.0439 14.9874 32.1258 14.9874 32.2898C14.9874 32.3717 14.9874 32.5357 14.9874 32.6176C14.9874 32.6996 14.9874 32.7816 14.9051 32.7816C14.9051 32.8635 14.8228 32.8635 14.8228 32.8635H14.7405H12.3535V35.9781C12.3535 36.0601 12.3535 36.0601 12.3535 36.0601C12.3535 36.0601 12.2712 36.142 12.1889 36.142C12.1066 36.142 12.0243 36.142 11.942 36.224C11.8597 36.224 11.695 36.224 11.5304 36.224C11.3658 36.224 11.2835 36.224 11.1189 36.224C11.0366 36.224 10.9542 36.224 10.8719 36.142C10.7896 36.142 10.7896 36.0601 10.7073 36.0601L10.625 35.9781V28.9293C10.625 28.7654 10.7073 28.6014 10.7896 28.5195C10.8719 28.4375 11.0366 28.4375 11.1189 28.4375H14.8228H14.9051L14.9874 28.5195C14.9874 28.6014 14.9874 28.6014 15.0698 28.6834C15.1521 28.8473 15.1521 29.0112 15.1521 29.0932Z" fill="white"/>
<path d="M21.0778 35.898C21.0778 35.98 21.0778 35.98 21.0778 35.98C21.0778 35.98 20.9955 36.062 20.9132 36.062C20.8309 36.062 20.7486 36.062 20.6663 36.1439C20.584 36.1439 20.4194 36.1439 20.2547 36.1439C20.0901 36.1439 20.0078 36.1439 19.8432 36.1439C19.7609 36.1439 19.6786 36.1439 19.5963 36.062C19.514 36.062 19.514 35.98 19.4316 35.98V35.898V28.6033V28.5213C19.4316 28.5213 19.514 28.4394 19.5963 28.4394C19.6786 28.4394 19.7609 28.4394 19.8432 28.3574C19.9255 28.3574 20.0901 28.3574 20.2547 28.3574C20.4194 28.3574 20.5017 28.3574 20.6663 28.3574C20.7486 28.3574 20.8309 28.3574 20.9132 28.4394C20.9955 28.4394 20.9955 28.5213 21.0778 28.5213V28.6033V35.898Z" fill="white"/>
<path d="M31.1183 29.0112C31.1183 29.0932 31.1183 29.2571 31.1183 29.3391C31.1183 29.4211 31.1183 29.503 31.036 29.503C31.036 29.585 30.9537 29.585 30.9537 29.585H30.8714H28.8959V35.8142C28.8959 35.8962 28.8959 35.8962 28.8959 35.8962C28.8959 35.8962 28.8136 35.9781 28.7313 35.9781C28.649 35.9781 28.5667 35.9781 28.4844 36.0601C28.4021 36.0601 28.2374 36.0601 28.0728 36.0601C27.9082 36.0601 27.8259 36.0601 27.6613 36.0601C27.579 36.0601 27.4967 36.0601 27.4143 35.9781C27.332 35.9781 27.332 35.8962 27.2497 35.8962V35.8142V29.585H25.2743H25.192L25.1097 29.503C25.1097 29.4211 25.1097 29.4211 25.0273 29.3391C25.0273 29.2571 25.0273 29.1752 25.0273 29.0112C25.0273 28.9293 25.0273 28.7654 25.0273 28.6834C25.0273 28.6014 25.0273 28.5195 25.1097 28.5195C25.1097 28.4375 25.192 28.4375 25.192 28.4375H25.2743H30.7891H30.8714L30.9537 28.5195C30.9537 28.6014 30.9537 28.6014 31.036 28.6834C31.1183 28.7654 31.1183 28.8473 31.1183 29.0112Z" fill="white"/>
<path d="M41.3262 35.5701C41.3262 35.6521 41.3262 35.734 41.2439 35.816C41.2439 35.898 41.1615 35.9799 41.0792 35.9799C40.9969 36.0619 40.9969 36.0619 40.9146 36.0619C40.8323 36.0619 40.75 36.0619 40.6677 36.0619H40.0092C39.8446 36.0619 39.7623 36.0619 39.68 35.9799C39.5977 35.9799 39.5153 35.898 39.433 35.816C39.3507 35.734 39.2684 35.6521 39.1861 35.4882C39.1038 35.4062 39.0215 35.2423 38.9392 34.9964L36.9637 31.39C36.8814 31.1441 36.7168 30.9802 36.6345 30.7343C36.5522 30.4884 36.3876 30.2425 36.3052 29.9966C36.3052 30.2425 36.3052 30.5704 36.3052 30.8163C36.3052 31.1441 36.3052 31.39 36.3052 31.7178V35.816C36.3052 35.898 36.3052 35.898 36.3052 35.898L36.2229 35.9799C36.1406 35.9799 36.1406 35.9799 35.976 36.0619C35.8937 36.0619 35.7291 36.0619 35.6468 36.0619C35.4821 36.0619 35.3998 36.0619 35.3175 36.0619C35.2352 36.0619 35.1529 36.0619 35.0706 35.9799C34.9883 35.9799 34.9883 35.898 34.9883 35.898V35.816V28.8491C34.9883 28.6852 35.0706 28.5213 35.1529 28.4393C35.2352 28.3574 35.3998 28.2754 35.5645 28.2754H36.3876C36.5522 28.2754 36.6345 28.2754 36.7991 28.3574C36.8814 28.3574 37.046 28.4393 37.046 28.5213C37.1283 28.6032 37.2107 28.6852 37.293 28.7672C37.3753 28.8491 37.4576 29.0131 37.5399 29.177L39.0215 32.0457C39.1038 32.2096 39.1861 32.3736 39.2684 32.5375C39.3507 32.7014 39.433 32.8653 39.5153 33.0293C39.5977 33.1932 39.68 33.3571 39.7623 33.521C39.8446 33.685 39.9269 33.8489 40.0092 34.0128C40.0092 33.7669 40.0092 33.4391 40.0092 33.1112C40.0092 32.7834 40.0092 32.5375 40.0092 32.2096V28.6032V28.5213C40.0092 28.5213 40.0915 28.4393 40.1738 28.4393C40.2561 28.4393 40.3384 28.3574 40.4208 28.3574C40.5031 28.3574 40.6677 28.3574 40.75 28.3574C40.9146 28.3574 40.9969 28.3574 41.0792 28.3574C41.1615 28.3574 41.2439 28.3574 41.3262 28.4393C41.4085 28.4393 41.4085 28.5213 41.4085 28.5213V28.6032V35.5701H41.3262Z" fill="white"/>
<path d="M50.4632 35.4882C50.4632 35.5701 50.4632 35.6521 50.4632 35.816C50.4632 35.898 50.4632 35.9799 50.3809 35.9799C50.3809 36.0619 50.2985 36.0619 50.2985 36.0619H50.2162H46.2653C46.1007 36.0619 46.0184 35.9799 45.9361 35.9799C45.8538 35.898 45.7715 35.816 45.7715 35.5701V28.7672C45.7715 28.6032 45.8538 28.4393 45.9361 28.3574C46.0184 28.2754 46.183 28.2754 46.2653 28.2754H50.1339H50.2162L50.2985 28.3574C50.2985 28.4393 50.2985 28.4393 50.3809 28.5213C50.3809 28.6032 50.3809 28.6852 50.3809 28.8491C50.3809 28.9311 50.3809 29.095 50.3809 29.095C50.3809 29.177 50.3809 29.259 50.2985 29.259C50.2985 29.3409 50.2986 29.3409 50.2162 29.3409H50.1339H47.4177V31.2261H49.8047H49.887L49.9693 31.308C49.9693 31.39 49.9693 31.39 50.0516 31.472C50.0516 31.5539 50.0516 31.6359 50.0516 31.7178C50.0516 31.7998 50.0516 31.9637 50.0516 32.0457C50.0516 32.1277 50.0516 32.2096 49.9693 32.2096C49.9693 32.2096 49.9693 32.2916 49.887 32.2916H49.8047H47.4177V34.5046H50.2162H50.2985L50.3809 34.5866C50.3809 34.6685 50.3809 34.6685 50.4632 34.7505C50.4632 35.2423 50.4632 35.4062 50.4632 35.4882Z" fill="white"/>
<path d="M59.5991 33.7669C59.5991 34.1767 59.5167 34.5045 59.3521 34.8324C59.1875 35.1602 59.0229 35.4061 58.6936 35.5701C58.4467 35.734 58.1175 35.8979 57.7882 36.0618C57.459 36.1438 57.0474 36.2258 56.6359 36.2258C56.389 36.2258 56.142 36.2258 55.8951 36.1438C55.6482 36.0618 55.4835 36.0618 55.3189 35.9799C55.1543 35.8979 54.9897 35.8159 54.9074 35.734C54.8251 35.652 54.7428 35.5701 54.6604 35.5701C54.5781 35.4881 54.5781 35.4061 54.5781 35.3242C54.5781 35.2422 54.5781 35.0783 54.5781 34.9143C54.5781 34.7504 54.5781 34.6685 54.5781 34.5865C54.5781 34.5045 54.5781 34.4226 54.6604 34.3406C54.6604 34.2586 54.7427 34.2586 54.7427 34.2586H54.8251C54.9074 34.2586 54.9897 34.2586 55.072 34.3406C55.1543 34.4226 55.3189 34.5045 55.4835 34.5865C55.6482 34.6685 55.8128 34.7504 56.0597 34.8324C56.3066 34.9143 56.5536 34.9143 56.8005 34.9143C56.9651 34.9143 57.1297 34.9143 57.2944 34.8324C57.459 34.7504 57.5413 34.7504 57.7059 34.6685C57.7882 34.5865 57.8705 34.5045 57.9529 34.3406C58.0352 34.2586 58.0352 34.0947 58.0352 33.9308C58.0352 33.7669 57.9528 33.6029 57.8705 33.521C57.7882 33.357 57.6236 33.2751 57.459 33.1931C57.2944 33.1112 57.1297 33.0292 56.9651 32.9472C56.8005 32.8653 56.5536 32.7833 56.389 32.7013C56.142 32.6194 55.9774 32.5374 55.8128 32.3735C55.6482 32.2096 55.4012 32.1276 55.3189 31.8817C55.1543 31.7178 55.072 31.5539 54.9074 31.308C54.8251 31.0621 54.7427 30.8162 54.7427 30.4883C54.7427 30.0785 54.8251 29.7507 54.9074 29.5048C55.072 29.2589 55.2366 29.013 55.4835 28.7671C55.7305 28.6032 55.9774 28.4392 56.3066 28.3573C56.6359 28.2753 56.9651 28.1934 57.2944 28.1934C57.459 28.1934 57.7059 28.1934 57.8705 28.1934C58.0352 28.1934 58.1998 28.2753 58.3644 28.2753C58.529 28.3573 58.6936 28.3573 58.776 28.4392C58.8583 28.6032 58.9406 28.6032 58.9406 28.6851L59.0229 28.7671V28.8491C59.0229 28.931 59.0229 28.931 59.0229 29.013C59.0229 29.095 59.0229 29.1769 59.0229 29.2589C59.0229 29.3408 59.0229 29.5048 59.0229 29.5867C59.0229 29.6687 59.0229 29.7507 59.0229 29.7507C59.0229 29.8326 59.0229 29.8326 58.9406 29.8326H58.8583C58.8583 29.8326 58.7759 29.8326 58.6936 29.7507C58.6113 29.6687 58.4467 29.6687 58.3644 29.5867C58.1998 29.5048 58.0352 29.5048 57.8705 29.4228C57.7059 29.4228 57.459 29.4228 57.2121 29.4228C57.0474 29.4228 56.8828 29.4228 56.7182 29.5048C56.5536 29.5867 56.4713 29.5867 56.389 29.6687C56.3066 29.7507 56.2243 29.8326 56.2243 29.9146C56.142 29.9965 56.142 30.1605 56.142 30.2424C56.142 30.4064 56.2243 30.5703 56.3066 30.6523C56.389 30.7342 56.5536 30.8981 56.7182 30.9801C56.8828 31.0621 57.0474 31.144 57.2121 31.226C57.3767 31.308 57.6236 31.3899 57.7882 31.4719C58.0352 31.5539 58.1998 31.7178 58.4467 31.7997C58.6113 31.8817 58.8583 32.0456 58.9406 32.2096C59.1052 32.3735 59.1875 32.6194 59.3521 32.7833C59.5167 33.1931 59.5991 33.439 59.5991 33.7669Z" fill="white"/>
<path d="M68.2416 33.7669C68.2416 34.1767 68.1593 34.5045 67.9947 34.8324C67.8301 35.1602 67.6655 35.4061 67.3362 35.5701C67.0893 35.734 66.76 35.8979 66.4308 36.0618C66.1016 36.1438 65.69 36.2258 65.2785 36.2258C65.0315 36.2258 64.7846 36.2258 64.5377 36.1438C64.2907 36.0618 64.1261 36.0618 63.9615 35.9799C63.7969 35.8979 63.6323 35.8159 63.5499 35.734C63.4676 35.652 63.3853 35.5701 63.303 35.5701C63.2207 35.4881 63.2207 35.4061 63.2207 35.3242C63.2207 35.2422 63.2207 35.0783 63.2207 34.9143C63.2207 34.7504 63.2207 34.6685 63.2207 34.5865C63.2207 34.5045 63.2207 34.4226 63.2207 34.3406C63.2207 34.2586 63.303 34.2586 63.303 34.2586H63.3853C63.4676 34.2586 63.5499 34.2586 63.6323 34.3406C63.7146 34.4226 63.8792 34.5045 64.0438 34.5865C64.2084 34.6685 64.3731 34.7504 64.62 34.8324C64.8669 34.9143 65.1138 34.9143 65.3608 34.9143C65.5254 34.9143 65.7723 34.9143 65.8546 34.8324C66.0193 34.7504 66.1016 34.7504 66.2662 34.6685C66.3485 34.5865 66.4308 34.5045 66.5131 34.3406C66.5954 34.2586 66.5954 34.0947 66.5954 33.9308C66.5954 33.7669 66.5131 33.6029 66.4308 33.521C66.3485 33.357 66.1839 33.2751 66.1016 33.1931C65.9369 33.1112 65.7723 33.0292 65.6077 32.9472C65.4431 32.8653 65.1962 32.7833 65.0315 32.7013C64.7846 32.6194 64.62 32.5374 64.4554 32.3735C64.2907 32.2096 64.0438 32.1276 63.9615 31.8817C63.7969 31.7178 63.7146 31.5539 63.5499 31.308C63.4676 31.0621 63.3853 30.8162 63.3853 30.4883C63.3853 30.0785 63.4676 29.7507 63.6323 29.5048C63.7969 29.2589 63.9615 29.013 64.2084 28.7671C64.4554 28.6032 64.7023 28.4392 65.0315 28.3573C65.3608 28.2753 65.69 28.1934 66.0193 28.1934C66.1839 28.1934 66.4308 28.1934 66.5954 28.1934C66.76 28.1934 66.9247 28.2753 67.0893 28.2753C67.2539 28.3573 67.4185 28.3573 67.5008 28.4392C67.6655 28.5212 67.6655 28.5212 67.7478 28.6032L67.8301 28.6851V28.7671C67.8301 28.8491 67.8301 28.8491 67.8301 28.931C67.8301 29.013 67.8301 29.095 67.8301 29.1769C67.8301 29.2589 67.8301 29.4228 67.8301 29.5048C67.8301 29.5867 67.8301 29.6687 67.8301 29.6687C67.8301 29.7507 67.8301 29.7507 67.7478 29.7507H67.6655C67.5831 29.7507 67.5832 29.7507 67.4185 29.6687C67.3362 29.5867 67.1716 29.5867 67.0893 29.5048C66.9247 29.4228 66.76 29.4228 66.5954 29.3408C66.3485 29.4228 66.1839 29.4228 65.9369 29.4228C65.7723 29.4228 65.6077 29.4228 65.5254 29.5048C65.3608 29.5867 65.2785 29.5867 65.1962 29.6687C65.1138 29.7507 65.0315 29.8326 65.0315 29.9146C64.9492 29.9965 64.9492 30.1605 64.9492 30.2424C64.9492 30.4064 64.9492 30.5703 65.1138 30.6523C65.1962 30.7342 65.3608 30.8981 65.5254 30.9801C65.69 31.0621 65.8546 31.144 66.0193 31.226C66.1839 31.308 66.4308 31.3899 66.6777 31.4719C66.9247 31.5539 67.0893 31.7178 67.2539 31.7997C67.4185 31.8817 67.6655 32.0456 67.8301 32.2096C67.9947 32.3735 68.077 32.6194 68.2416 32.7833C68.1593 33.1931 68.2416 33.439 68.2416 33.7669Z" fill="white"/>
<path d="M0.5 20.6533L9.06027 0.0817871H14.0812L22.6415 20.6533H17.4559L15.4805 15.8997H7.66099L5.68555 20.6533H0.5ZM11.6119 4.99928L8.64872 12.2116H14.5751L11.6119 4.99928Z" fill="white"/>
<path d="M23.7937 0.0820312H28.4031V11.6381C28.4031 13.3593 28.4031 14.7525 28.9793 15.5721C29.6377 16.6376 31.1193 16.9654 33.7533 16.9654H37.5395V20.6535H31.7778C30.7901 20.6535 27.1684 20.8174 25.2753 18.8505C23.7114 17.2113 23.7937 14.9984 23.7937 11.5562V0.0820312Z" fill="white"/>
<path d="M55.0719 0.0819582V3.77008H49.3102C46.9232 3.77008 46.0178 3.85203 44.7831 4.75357C44.1247 5.24532 43.4662 6.72057 43.4662 8.60561H52.9319V12.2937H43.4662C43.4662 14.0968 44.207 15.2442 45.0301 15.9818C46.2647 17.0473 47.4171 16.9653 49.5571 16.9653H55.0719V20.6535H49.3102C45.7709 20.6535 43.96 20.5715 41.4907 18.6045C39.433 16.9653 38.4453 14.1788 38.4453 10.1628C38.4453 6.72057 39.3507 4.09791 41.0792 2.37679C42.9723 0.491749 44.8655 0 47.5817 0H55.0719V0.0819582Z" fill="white"/>
<path d="M64.5374 10.2446L57.7879 0.0817871H63.2204L67.2536 6.88432L71.6983 0.0817871H77.0485L70.0521 10.2446L77.0485 20.6533H71.863L67.3359 13.6049L62.8911 20.6533H57.6233L64.5374 10.2446Z" fill="white"/>
</svg>
