<svg width="130" height="29" viewBox="0 0 130 29" fill="none" xmlns="http://www.w3.org/2000/svg">
<path fill-rule="evenodd" clip-rule="evenodd" d="M9.19562 13.7244C12.2571 13.7244 14.2169 13.212 15.6461 12.0681C16.9114 11.0427 17.5235 9.66265 17.5235 7.9669C17.5235 5.87652 16.5852 4.45703 15.1157 3.51049C13.523 2.48503 11.5639 2.20939 8.25723 2.20939H2.99146L2.99083 13.7244H9.19562ZM0.500629 0L8.42002 0.000607142C11.8492 0.000607142 14.5029 0.395249 16.5852 1.69696C18.5852 2.95861 20.0138 5.00891 20.0138 7.84851C20.0144 10.4513 18.7894 12.5806 16.9114 13.8817C15.5645 14.8288 13.9724 15.3017 12.1352 15.578L22.0137 28.5515L18.9931 28.552L9.35841 15.7747H2.99084L2.99021 28.5515H0.5L0.500629 0Z" fill="white"/>
<path fill-rule="evenodd" clip-rule="evenodd" d="M50.6997 8.92188H52.492L52.4916 28.5514H50.6992L50.6997 8.92188Z" fill="white"/>
<path fill-rule="evenodd" clip-rule="evenodd" d="M60.1545 24.5032C62.331 25.8014 65.1226 26.4894 67.7907 26.4894C71.1986 26.4894 73.3751 25.3817 73.3757 23.1285C73.3751 20.3027 70.0083 19.9969 66.8475 19.5384C63.4808 19.0421 59.6621 18.1255 59.6621 14.3065C59.6627 10.7546 62.9057 8.92188 67.5044 8.92188C70.1315 8.92188 72.8011 9.53277 74.7721 10.5259L74.7715 12.8936C72.6367 11.6336 69.9267 10.9845 67.4228 10.9845C64.2609 10.9845 62.0851 12.0152 62.0844 14.1543C62.0851 16.789 65.3697 17.0565 68.4072 17.5152C72.0615 18.0495 75.7974 18.9656 75.7974 22.9374C75.7974 26.6423 72.5539 28.5514 67.6681 28.5514C64.9992 28.5514 62.207 27.9781 60.1545 26.9092V24.5032Z" fill="white"/>
<path fill-rule="evenodd" clip-rule="evenodd" d="M83.2746 21.6815L83.2752 11.2435H79.3828L79.3834 9.24763H83.2752V3.95183L85.6182 3.56836V9.24823H91.9325V11.2435H85.6182V21.298C85.6182 24.1377 86.0542 26.4787 89.1523 26.4792C90.1844 26.4787 91.1774 26.2104 91.9325 25.788L91.9319 27.9375C91.1774 28.2826 90.0261 28.5514 88.8344 28.5514C87.4049 28.5514 85.7765 28.1674 84.6644 26.9389C83.6714 25.8264 83.2746 24.1377 83.2746 21.6815Z" fill="white"/>
<path fill-rule="evenodd" clip-rule="evenodd" d="M108.012 24.3203V20.0899C106.546 19.6709 104.85 19.4039 103.307 19.4039C100.609 19.4039 97.8327 20.2419 97.8334 23.0246C97.8327 25.4641 99.9531 26.5309 102.266 26.5315C104.426 26.5315 106.507 25.6167 108.012 24.3203ZM97.4855 27.2551C96.252 26.3408 95.5195 24.9688 95.5195 23.2153C95.5195 21.2331 96.4449 19.8229 97.9099 18.8698C99.3369 17.9556 101.264 17.6128 103.115 17.6123C104.85 17.6123 106.43 17.8792 108.012 18.2988V16.1264C108.012 14.2967 107.664 13.1154 106.624 12.2005C105.736 11.4382 104.426 11.0186 102.729 11.0186C100.494 11.0186 98.4501 11.7428 96.9079 12.8484V10.5996C98.4501 9.64603 100.57 8.92246 102.961 8.92188C105.236 8.92246 107.086 9.49403 108.359 10.5615C109.63 11.6289 110.286 13.3055 110.286 15.5929V23.7113C110.286 25.312 110.671 26.4939 112.214 26.4934C112.676 26.4934 113.1 26.3796 113.448 26.1889L113.447 28.133C113.023 28.3231 112.445 28.4376 111.789 28.4376C110.17 28.4376 108.898 27.6753 108.358 26.2264H108.281C106.855 27.4464 104.542 28.5514 101.958 28.5514C100.339 28.5514 98.7196 28.1705 97.4855 27.2551Z" fill="white"/>
<path fill-rule="evenodd" clip-rule="evenodd" d="M120.925 21.6822L120.926 11.2435H117.033L117.034 9.24823H120.926V3.95241L123.269 3.56836V9.24823H129.583V11.2435H123.269V21.298C123.269 24.1382 123.705 26.4792 126.803 26.4792C127.835 26.4792 128.828 26.2104 129.583 25.7886L129.582 27.9375C128.828 28.2831 127.676 28.5514 126.485 28.5514C125.055 28.5514 123.427 28.1679 122.315 26.9395C121.322 25.827 120.925 24.1382 120.925 21.6822Z" fill="white"/>
<path fill-rule="evenodd" clip-rule="evenodd" d="M38.4823 15.9452C39.0318 16.7313 39.3533 17.6921 39.3533 18.7369C39.3533 21.4104 37.2729 23.5489 34.5638 23.5489C31.8554 23.5489 29.7743 21.4098 29.7743 18.7369C29.7743 16.064 31.8554 13.9249 34.5644 13.9249C35.7727 13.9249 36.854 14.353 37.6833 15.0621L41.2042 10.9151C39.4035 9.65919 37.1199 8.92246 34.5644 8.92188C28.4004 8.92188 23.8072 13.1994 23.8066 18.7369C23.8066 24.2744 28.4004 28.5514 34.5638 28.5514C40.7272 28.552 45.3204 24.275 45.3204 18.7375C45.3204 16.4368 44.5261 14.3559 43.1577 12.7067L38.4823 15.9452Z" fill="white"/>
<path fill-rule="evenodd" clip-rule="evenodd" d="M51.4843 5.35401L56.0776 1.90691C55.5278 1.18846 54.8834 0.547605 54.1582 0L50.6992 4.41337C50.9968 4.68874 51.2593 5.00541 51.4843 5.35401Z" fill="white"/>
</svg>
