<svg width="157" height="36" viewBox="0 0 157 36" fill="none" xmlns="http://www.w3.org/2000/svg">
<path d="M29.7494 1.19277C31.159 1.19435 32.5104 1.7526 33.5072 2.74505C34.5039 3.73751 35.0646 5.08311 35.0662 6.48666V29.1234C35.0646 30.527 34.5039 31.8725 33.5072 32.865C32.5104 33.8575 31.159 34.4157 29.7494 34.4173H7.01472C5.6051 34.4157 4.25368 33.8575 3.25693 32.865C2.26018 31.8725 1.69951 30.527 1.69793 29.1234V6.48666C1.69951 5.08311 2.26018 3.73751 3.25693 2.74505C4.25368 1.7526 5.6051 1.19435 7.01472 1.19277H29.7494ZM29.7494 0H7.01472C5.28691 0 3.62986 0.683414 2.40812 1.8999C1.18637 3.11638 0.5 4.76629 0.5 6.48666V29.1234C0.5 30.8437 1.18637 32.4936 2.40812 33.7101C3.62986 34.9266 5.28691 35.61 7.01472 35.61H29.7494C31.4772 35.61 33.1342 34.9266 34.356 33.7101C35.5777 32.4936 36.2641 30.8437 36.2641 29.1234V6.48666C36.2641 4.76629 35.5777 3.11638 34.356 1.8999C33.1342 0.683414 31.4772 0 29.7494 0Z" fill="white"/>
<path d="M29.3335 9.78216C29.5122 9.50682 29.3894 9.28516 29.06 9.28516H21.3733C21.1921 9.29504 21.0153 9.34472 20.8557 9.43064C20.6961 9.51657 20.5575 9.63662 20.4499 9.78216L11.8528 23.0282C11.7647 23.181 11.7179 23.3538 11.7168 23.5299C11.7158 23.706 11.7605 23.8794 11.8468 24.0332L15.6123 29.9704C15.788 30.2477 16.0785 30.2487 16.2572 29.9704L29.3335 9.78216Z" fill="white"/>
<path d="M17.3988 9.28125C17.7282 9.28125 17.852 9.5069 17.6733 9.77828L13.0453 16.9266C12.8676 17.202 12.5771 17.201 12.4014 16.9266L7.87628 9.78524C7.70058 9.5079 7.82637 9.28125 8.1558 9.28125H17.3988Z" fill="white"/>
<path d="M90.2374 9.25195H86.6406V25.5317H90.2374V9.25195Z" fill="white"/>
<path d="M56.7546 9.25195L52.1226 18.5307L47.7622 9.25195H43.6094L50.0243 22.8773L45.3424 32.0427H49.5281L60.9723 9.25195H56.7546Z" fill="white"/>
<path d="M83.142 0.460938H79.5781V25.5309H83.142V0.460938Z" fill="white"/>
<path d="M69.0175 12.3126C69.9806 12.3194 70.9226 12.5941 71.7372 13.1058C72.5518 13.6174 73.2066 14.3456 73.6275 15.2082H77.3211C76.8295 13.3936 75.7476 11.7926 74.2448 10.6555C72.7419 9.51846 70.9029 8.90956 69.0155 8.92408C64.3067 8.92408 60.5781 12.7341 60.5781 17.39C60.5781 22.0787 64.3067 25.8559 69.0155 25.8559C73.0376 25.8559 76.3398 23.1204 77.3211 19.376H73.6275C73.2283 20.2629 72.5815 21.0167 71.7642 21.5479C70.9469 22.079 69.9934 22.3651 69.0175 22.3719C66.3032 22.3719 63.9812 20.0927 63.9812 17.39C63.9812 14.5591 66.3032 12.3126 69.0175 12.3126Z" fill="white"/>
<path d="M88.4399 2.7719C87.1322 2.7719 86.1838 3.74906 86.1838 4.98667C86.1838 6.2561 87.1322 7.33068 88.4399 7.33068C89.7147 7.33068 90.696 6.2561 90.696 4.98667C90.6976 4.69272 90.64 4.40142 90.5268 4.12994C90.4135 3.85846 90.2469 3.61228 90.0367 3.4059C89.8264 3.19953 89.5769 3.03712 89.3026 2.92824C89.0284 2.81936 88.7351 2.76619 88.4399 2.7719Z" fill="white"/>
<path d="M133.532 4.04297H130V21.9837C130 24.1328 131.668 25.5323 133.663 25.5323H138.797V22.0155H134.504C134.247 22.0155 134.001 21.9138 133.818 21.7328C133.637 21.5518 133.535 21.3063 133.535 21.0504V12.7693H138.8V9.25254H133.535L133.532 4.04297Z" fill="white"/>
<path d="M101.425 8.92578C99.0051 8.92578 96.9127 9.70707 95.2446 11.368C93.7795 12.9966 92.9741 15.1089 92.9845 17.2953C92.9845 19.6391 93.835 21.8538 95.3384 23.3835C96.9406 24.8815 99.0669 25.8586 101.421 25.8586C103.775 25.8586 105.933 24.8815 107.568 23.2861C108.288 22.6023 108.746 21.821 109.203 20.8767L105.019 20.9731C104.103 21.9174 102.893 22.4055 101.425 22.4055C99.9864 22.4055 98.7435 21.9502 97.861 21.0059C97.2407 20.4021 96.7878 19.6488 96.5463 18.8191H109.796L109.807 18.5368C109.842 18.1829 109.894 17.6969 109.894 17.2893C109.89 12.4754 106.228 8.92578 101.425 8.92578ZM96.6282 15.5359C97.327 13.6185 99.1568 12.3123 101.425 12.3123C103.665 12.3123 105.461 13.6165 106.179 15.5359H96.6282Z" fill="white"/>
<path d="M120.224 8.92578C118.713 8.92578 117.284 9.3532 116.202 10.377V9.25181H112.67V25.5316H116.2V16.1542C116.2 14.0668 117.769 12.2467 119.83 12.2467C121.988 12.2467 123.557 14.0359 123.557 16.1542V25.5316H127.089V15.8898C127.091 11.8561 124.279 8.92578 120.224 8.92578Z" fill="white"/>
<path d="M151.517 15.6058H146.411C146.043 15.596 145.693 15.4432 145.435 15.1801C145.177 14.9169 145.034 14.5641 145.034 14.1968C145.034 13.8294 145.177 13.4766 145.435 13.2134C145.693 12.9503 146.043 12.7975 146.411 12.7878H155.562V9.24414H146.411C145.088 9.24414 143.818 9.76776 142.882 10.6999C141.946 11.6318 141.42 12.896 141.42 14.2142C141.42 15.5323 141.946 16.7965 142.882 17.7284C143.818 18.6605 145.088 19.1842 146.411 19.1842H151.517C151.702 19.1804 151.886 19.2138 152.057 19.2824C152.228 19.351 152.384 19.4533 152.515 19.5834C152.644 19.7133 152.747 19.8682 152.816 20.0388C152.885 20.2093 152.919 20.392 152.915 20.5758C152.914 20.9478 152.768 21.3049 152.507 21.5711C152.246 21.8373 151.891 21.9916 151.517 22.0012H142.069V25.5458H151.517C152.841 25.5458 154.111 25.0221 155.047 24.0901C155.983 23.1581 156.509 21.8939 156.509 20.5758C156.509 19.2576 155.983 17.9935 155.047 17.0615C154.111 16.1294 152.841 15.6058 151.517 15.6058Z" fill="white"/>
</svg>
