<svg width="184" height="36" viewBox="0 0 184 36" fill="none" xmlns="http://www.w3.org/2000/svg">
<path d="M29.2065 22.6717C29.757 22.6717 30.0443 23.3918 30.0443 24.808C29.9724 25.8162 29.6613 26.8003 29.1108 27.6645C28.4406 28.7926 27.5789 29.8248 26.5736 30.6889C25.5444 31.6011 24.3716 32.3692 23.1269 32.9453C21.978 33.5214 20.7095 33.8094 19.417 33.8334C17.7894 33.8334 16.6883 32.3932 16.1139 29.5128C15.324 30.833 14.223 31.9371 12.9305 32.7772C11.3508 33.7134 9.53167 34.1454 7.71258 34.0494C6.73123 34.0974 5.77382 33.9294 4.86428 33.5694C3.95473 33.2093 3.14093 32.6812 2.44681 31.9851C1.80056 31.337 1.29791 30.5689 0.962815 29.7048C0.627721 28.8646 0.460175 27.9525 0.508045 27.0164C0.508045 21.7356 2.25532 17.5829 5.74988 14.5345C6.94665 13.4303 8.35884 12.5662 9.8907 12.0141C11.2071 11.606 12.5715 11.39 13.9358 11.414C15.1325 11.366 16.3293 11.63 17.4064 12.1821C17.8372 11.294 18.3399 10.8379 18.8904 10.8379C19.4648 10.8619 20.0393 10.9819 20.5659 11.246C21.0924 11.486 21.5711 11.846 21.978 12.2781C22.7918 12.9262 23.3184 13.8624 23.4381 14.9185C22.8876 16.1907 22.2413 17.4149 21.5472 18.5911C21.26 20.5834 21.1403 22.5997 21.1642 24.592C21.1642 27.1844 21.4993 28.4806 22.1456 28.4806C22.9594 28.4806 24.8982 26.8723 27.9858 23.6319C28.5603 23.0078 28.9672 22.6717 29.2065 22.6717ZM7.32962 25.5041C7.32962 27.9045 8.21522 29.0807 9.9625 29.0807C11.8534 29.0567 13.4092 28.0485 14.6538 26.0562C15.1325 25.2641 15.4916 24.424 15.7309 23.5358C15.6831 20.5354 15.9942 17.5349 16.6644 14.6065C14.1512 15.1105 11.8773 16.3827 10.1301 18.231C9.19658 19.1912 8.47851 20.3434 7.9998 21.5915C7.5211 22.8397 7.28175 24.1599 7.32962 25.5041Z" fill="white"/>
<path d="M49.3985 19.9574C49.3985 18.9255 48.7987 18.3975 47.6233 18.3975C46.8077 18.3975 45.9201 19.1655 44.9365 20.7254C43.953 22.2853 43.2333 23.9892 42.8015 25.7891V25.8851C42.8015 26.9891 42.9694 28.093 43.2813 29.149C43.5452 29.8929 43.6891 30.6849 43.7611 31.4769C43.7611 32.5088 42.4417 33.5408 39.8029 34.5727C39.4671 34.7167 39.1073 34.7887 38.7234 34.8127C38.3636 34.8127 38.0038 34.7167 37.7159 34.4767C37.428 34.2607 37.2121 33.9487 37.1162 33.5888C36.7803 32.5328 36.6364 31.4289 36.6844 30.3009C36.6844 28.909 36.7324 27.6371 36.8043 26.4131C36.8763 25.2132 36.9483 24.0852 37.0442 23.0053C37.1162 21.9733 37.1881 21.0614 37.2841 20.2694C37.3561 19.4775 37.404 18.8295 37.404 18.3495C37.404 17.3176 36.9243 16.7896 35.9647 16.7896C35.0052 16.7896 33.8777 17.9175 32.6303 20.1734C31.3589 22.4293 30.7352 24.2052 30.7352 25.5252C30.7352 26.7491 30.8791 27.997 31.2149 29.173C31.4788 29.9169 31.6227 30.7089 31.6947 31.5009C31.6947 32.5328 30.3753 33.5648 27.7366 34.5967C27.4007 34.7407 27.0409 34.8127 26.6571 34.8367C26.2972 34.8367 25.9374 34.7407 25.6495 34.5007C25.3617 34.2847 25.1458 33.9727 25.0498 33.6128C24.714 32.4128 24.546 31.1409 24.618 29.8929C24.546 26.7011 24.714 23.5093 25.1218 20.3414C25.6015 17.4136 26.681 14.6297 28.2883 12.1578C28.4562 11.7978 28.7201 11.5099 29.0319 11.2699C29.3438 11.0539 29.7276 10.8859 30.1114 10.8379C31.143 10.8379 32.0785 11.6778 32.9421 13.3578C33.158 13.7417 33.3499 14.1497 33.4939 14.5577C34.0936 13.7177 34.8852 13.0218 35.7968 12.5418C36.7084 12.0618 37.7159 11.7978 38.7474 11.7738C40.0668 11.7738 41.3382 12.2298 42.3218 13.0938C42.8255 13.5018 43.2093 14.0057 43.4732 14.5817C43.7371 15.1577 43.881 15.7816 43.857 16.4296V16.9336C44.6487 15.8296 45.7042 14.9417 46.9036 14.3417C48.1031 13.7177 49.4464 13.4058 50.7898 13.4058C51.4855 13.3578 52.1812 13.4538 52.8289 13.6697C53.4766 13.8857 54.0763 14.2457 54.604 14.7017C55.0358 15.1097 55.3717 15.6137 55.5876 16.1656C55.8035 16.7176 55.9234 17.3176 55.8994 17.9175C55.8994 19.0695 55.8275 20.2214 55.6116 21.3734C55.4196 22.4053 55.2277 23.3653 54.9879 24.2532C54.748 25.1412 54.5561 25.9331 54.3641 26.6531C54.1962 27.1811 54.1003 27.7331 54.0763 28.285C54.0763 28.669 54.1962 28.861 54.4361 28.861C55.0838 28.765 55.7075 28.453 56.1633 27.973C56.835 27.3731 57.5307 26.7491 58.2024 26.0291L60.0735 24.1092C60.6732 23.5093 61.057 23.1973 61.2729 23.1973C61.7047 23.1973 61.9206 23.7252 61.9206 24.7572C61.9206 26.9411 60.8171 29.029 58.6341 31.0929C56.811 32.9888 54.2922 34.1167 51.6534 34.1887C49.4224 34.1887 48.319 32.1488 48.319 28.093C48.3669 26.6771 48.5349 25.2612 48.8227 23.8452C49.1826 22.5973 49.3505 21.2774 49.3985 19.9574Z" fill="white"/>
<path d="M74.889 29.7727C73.8476 31.0997 72.4914 32.1661 70.9415 32.9244C69.3915 33.659 67.7205 34.0618 66.001 34.0618C62.5379 34.0618 59.9466 33.185 58.2271 31.4552C57.3795 30.6021 56.7256 29.5831 56.2897 28.493C55.8537 27.3793 55.66 26.1944 55.7084 25.0096C55.6116 21.5498 56.8709 18.1611 59.22 15.5782C60.3825 14.2748 61.8113 13.2559 63.4339 12.5686C65.0565 11.8814 66.8002 11.5497 68.5439 11.6208C69.9728 11.5734 71.4016 11.7867 72.7578 12.2606C74.5984 12.9952 75.5187 13.6824 75.5187 14.3222C75.5187 14.8436 74.2351 15.0805 71.6438 15.0805C70.4329 15.0568 69.2462 15.2701 68.1322 15.7203C67.0182 16.1706 66.001 16.8341 65.1776 17.6872C64.3058 18.5403 63.6519 19.583 63.1918 20.6967C62.7558 21.8342 62.5379 23.019 62.5621 24.2276C62.5137 25.5072 62.9738 26.7394 63.7972 27.6873C64.2331 28.1613 64.7901 28.5404 65.3956 28.7774C66.001 29.0144 66.6791 29.1328 67.333 29.0855C68.665 29.1328 69.9728 28.8248 71.111 28.1613C70.0454 27.4741 69.1736 26.5262 68.5681 25.3887C67.9869 24.275 67.6963 23.019 67.7689 21.7631C67.7447 20.2702 68.3259 18.8247 69.3915 17.7346C69.9243 17.1422 70.5782 16.6682 71.329 16.3602C72.0555 16.0521 72.8547 15.8862 73.6781 15.9099C75.4218 15.9099 76.6569 16.3839 77.4076 17.308C78.1826 18.3744 78.5943 19.654 78.5459 20.9574C78.5217 22.5925 78.1584 24.1802 77.4561 25.6731H77.7467C79.0545 25.6731 80.338 25.1754 81.2825 24.275C81.6458 23.9195 81.9848 23.5877 82.2512 23.3034C82.3481 23.1849 82.4692 23.0901 82.5903 23.019C82.7356 22.9479 82.8809 22.9005 83.0262 22.9005C83.4621 22.9005 83.6801 23.4219 83.6801 24.4408C83.7285 25.2228 83.6074 26.0048 83.3168 26.7394C83.0262 27.4741 82.5661 28.1139 81.9848 28.6589C80.9677 29.5357 79.6357 30.0096 78.2795 30.0096C77.1655 30.0807 76.0272 29.9859 74.889 29.7727ZM74.4531 24.4171C74.9616 23.4219 75.228 22.3081 75.228 21.1943C75.228 20.1754 74.889 19.654 74.1867 19.654C73.8961 19.654 73.6781 19.8436 73.4843 20.2465C73.3148 20.6019 73.218 21.0048 73.1937 21.4076C73.1695 21.9764 73.2664 22.5214 73.4843 23.0427C73.7023 23.5641 74.0171 24.038 74.4289 24.4408V24.4171H74.4531Z" fill="white"/>
<path d="M179.321 34.0619C181.894 34.0619 183.986 31.9788 183.986 29.4167C183.986 26.8547 181.894 24.7715 179.321 24.7715C176.748 24.7715 174.656 26.8547 174.656 29.4167C174.68 31.9788 176.748 34.0619 179.321 34.0619Z" fill="white"/>
<path d="M131.906 23.5138C132.432 23.5138 132.672 24.2169 132.672 25.5996C132.6 26.5838 132.265 27.5212 131.691 28.3415C131.021 29.4429 130.16 30.4506 129.155 31.2943C128.126 32.1848 126.954 32.9347 125.71 33.4972C124.61 34.0362 123.39 34.3174 122.146 34.3643C121.213 34.4111 120.28 34.2002 119.466 33.7315C118.797 33.3097 118.27 32.7004 117.911 31.9973C117.409 30.9896 116.955 29.0211 116.62 26.1151C116.428 24.0763 116.093 22.0374 115.591 20.0455C114.825 19.9049 114.108 19.6002 113.486 19.1081C113.199 18.9206 112.96 18.6394 112.816 18.3347C112.649 18.0301 112.577 17.6785 112.577 17.3504C112.553 17.0224 112.625 16.7177 112.792 16.4365C112.96 16.1553 113.223 15.9443 113.51 15.8272C114.18 15.5225 114.945 15.3585 115.687 15.3819C116.452 15.3819 117.218 15.5694 117.888 15.9678C118.749 15.3116 119.443 14.4914 119.993 13.554C120.567 12.3588 120.83 11.023 120.758 9.68719C120.782 8.9607 120.663 8.23422 120.375 7.55461C120.088 6.87499 119.658 6.28912 119.108 5.79698C118.031 4.81271 116.428 4.34401 114.251 4.34401C112.601 4.29714 110.926 4.46118 109.323 4.83614C108.319 5.11736 107.338 5.49232 106.381 5.93758C105.567 6.33598 104.826 6.68751 104.204 7.03903C103.654 7.34369 103.056 7.53116 102.41 7.53116C101.86 7.53116 101.572 7.36712 101.572 7.01559C101.716 6.38284 102.003 5.79697 102.458 5.30484C103.199 4.39087 104.06 3.59408 105.041 2.96133C107.888 0.992792 111.285 -0.0383429 114.778 0.00852711C117.888 -0.085213 120.974 0.594397 123.725 2.02393C125.016 2.70355 126.093 3.73469 126.835 5.00018C127.552 6.26567 127.911 7.6952 127.863 9.12474C127.983 11.4682 127.241 13.7649 125.782 15.6162C124.394 17.3036 122.576 18.5925 120.495 19.3424C120.974 20.3736 121.356 21.4516 121.619 22.5764C121.907 23.7248 122.194 24.7793 122.481 25.7636C122.696 26.6073 123.031 27.4041 123.438 28.1774C123.533 28.4352 123.725 28.6696 123.94 28.8336C124.179 28.9976 124.442 29.1148 124.729 29.1383C125.423 29.0445 126.093 28.7399 126.571 28.2477C127.289 27.6618 128.007 27.0057 128.724 26.3261C129.442 25.623 130.064 24.9903 130.614 24.4044C131.26 23.7951 131.667 23.5138 131.906 23.5138ZM111.763 7.13276C112.17 7.13276 112.361 7.64833 112.361 8.65604C112.361 9.61688 112.314 10.6012 112.17 11.562C111.907 13.2259 111.548 14.8663 111.094 16.4833C109.993 20.6079 109.419 23.0217 109.419 23.7013V30.3803C109.491 31.0599 109.347 31.7395 108.988 32.3489C108.653 32.9582 108.127 33.4269 107.505 33.7315L105.807 34.4814C105.233 34.7392 104.611 34.8564 103.965 34.833C102.673 34.833 102.027 33.38 102.027 30.4506C102.171 26.6776 102.888 22.9514 104.108 19.3893C105.113 15.8272 106.572 12.4057 108.462 9.19506C108.845 8.65605 109.299 8.18735 109.802 7.78896C110.376 7.36713 111.07 7.13276 111.763 7.13276Z" fill="white"/>
<path d="M171.562 23.9558C172.085 23.9558 172.323 24.6752 172.323 26.09C172.251 27.0972 171.895 28.0804 171.349 28.8957C170.683 30.0227 169.828 31.0539 168.83 31.9171C167.808 32.8284 166.644 33.5957 165.408 34.1712C164.173 34.7467 162.795 35.0585 161.417 35.0585C160.799 35.0825 160.205 34.9866 159.635 34.7468C159.064 34.507 158.565 34.1473 158.161 33.6916C157.401 32.8523 156.973 31.7253 156.997 30.5983C157.021 29.3033 157.211 28.0084 157.544 26.7615C157.924 25.3467 158.352 23.8839 158.779 22.3252C159.943 18.2007 160.537 15.2991 160.585 13.6205C160.609 13.045 160.514 12.4935 160.3 11.9659C160.205 11.7741 160.039 11.6062 159.848 11.5103C159.658 11.4144 159.444 11.3664 159.231 11.3904C158.304 11.3904 157.33 11.9419 156.284 13.069C155.12 14.3639 154.122 15.8027 153.338 17.3374C151.342 20.8864 150.178 24.8911 149.988 28.9676L150.178 30.2625C150.249 30.7181 150.273 31.1977 150.273 31.6534C150.249 32.1809 150.107 32.7085 149.845 33.1881C149.584 33.6677 149.251 34.0753 148.8 34.3871C147.897 35.1784 146.756 35.61 145.545 35.61C145.212 35.61 144.903 35.5141 144.618 35.3223C144.333 35.1304 144.143 34.8667 144 34.5549C143.644 33.7396 143.477 32.8524 143.501 31.9651C143.572 30.5503 143.786 29.1355 144.19 27.7686C144.642 25.9941 145.164 24.1237 145.735 22.1334C147.208 16.8818 147.968 12.9731 147.992 10.4072C148.039 9.35213 147.873 8.29702 147.517 7.31384C147.374 6.95415 147.089 6.64241 146.756 6.45058C146.424 6.25874 146.043 6.16282 145.64 6.21078C143.976 6.21078 142.337 7.40977 140.721 9.78378C139.105 12.1818 137.632 15.8746 136.349 20.9104C136.016 22.2053 135.755 23.3563 135.589 24.3155L135.541 25.2028C135.969 27.0492 136.278 28.8957 136.42 30.7901C136.42 32.5886 135.803 33.7876 134.543 34.411L132.856 35.1784C132.31 35.4182 131.716 35.5621 131.122 35.5621C129.577 35.5621 128.817 34.0753 128.817 31.1258C128.817 28.1763 129.601 22.3732 131.193 13.7884C131.787 10.695 132.072 8.94448 132.072 8.58479C132.072 6.0669 131.454 4.81995 130.195 4.81995C129.767 4.81995 129.363 4.93985 129.031 5.17965C128.674 5.41945 128.318 5.68323 127.962 5.94701C127.605 6.21078 127.249 6.49854 126.869 6.81027C126.488 7.05007 126.061 7.19394 125.609 7.19394C125.134 7.19394 124.896 6.7863 124.896 5.94701C124.896 5.10771 125.11 4.26842 125.538 3.54902C125.942 2.80565 126.536 2.20615 127.249 1.77451C128.841 0.623481 130.765 0.0239915 132.738 0.0719512C135.494 0.0719512 137.133 1.36685 137.608 3.95667C137.727 4.72402 137.822 5.56333 137.894 6.4266C140.175 2.13422 143.026 0 146.495 0C150.297 0 152.459 1.82247 152.958 5.49138C153.148 6.61843 153.219 7.74549 153.195 8.89652V9.25622C155.191 6.47456 157.544 5.05975 160.276 5.05975C164.149 5.05975 166.074 7.40977 166.074 12.1338C166.026 14.5558 165.717 16.9777 165.123 19.3277C164.506 22.0614 164.03 24.0518 163.745 25.2268C163.508 26.138 163.341 27.0492 163.317 27.9844C163.317 29.1595 163.721 29.759 164.529 29.759C165.337 29.759 167.286 28.1523 170.351 24.915C170.897 24.2676 171.325 23.9558 171.562 23.9558Z" fill="white"/>
<path d="M105.831 17.5085C106.604 17.5085 107.015 18.2566 107.015 19.6825C106.966 21.2954 106.628 22.885 105.976 24.381C105.226 26.1576 104.163 27.7939 102.858 29.2198C101.36 30.8561 99.5711 32.2119 97.5652 33.1937C95.2209 34.3391 92.6108 34.9002 89.9765 34.83C87.1489 34.8534 84.4179 33.8483 82.3153 32.0016C80.1161 30.1081 79.0285 27.3965 79.0285 23.82C78.9802 20.524 79.5119 17.2748 80.5994 14.1424C81.5178 11.4542 82.8954 8.9062 84.6838 6.66212C86.2305 4.67517 88.1881 2.99211 90.4357 1.75319C92.2966 0.654524 94.4234 0.0467517 96.5985 0C99.982 0 101.674 1.44931 101.674 4.37129C101.746 5.77384 101.408 7.15302 100.731 8.39194C100.103 9.3971 99.4503 9.91137 98.7977 9.91137C98.3627 9.91137 97.9277 9.81786 97.541 9.65423C97.1544 9.4906 96.7918 9.23347 96.5018 8.90621C96.236 8.60233 95.8976 8.34518 95.5109 8.18155C95.1484 7.99455 94.7376 7.90104 94.3026 7.87767C93.5292 7.87767 91.3782 7.78416 89.5415 10.636C88.8165 11.5711 88.3089 12.623 87.9706 13.7684C86.9072 16.4099 86.3755 19.2383 86.3997 22.0902C86.6897 24.1473 87.7773 25.994 89.469 27.2563C90.4599 27.9342 91.6683 28.2381 92.8766 28.1445C95.0276 27.9108 97.0093 26.9056 98.4352 25.3161C99.4986 24.2174 100.441 23.1655 101.432 22.0434C102.447 20.9214 103.317 19.8929 104.09 18.9345C104.864 17.9527 105.444 17.5085 105.831 17.5085Z" fill="white"/>
</svg>
